<svg width="121" height="59" viewBox="0 0 121 59" fill="none" xmlns="http://www.w3.org/2000/svg">
<path d="M7.15459 50.7195C3.88066 50.7195 1.40977 47.876 1.40977 44.1023C1.40977 40.267 3.7277 37.4852 6.91927 37.4852C8.12824 37.4852 10.2314 37.8491 10.7639 40.2846V40.3287H11.0962V38.4653L11.0757 38.4506C10.0549 37.6437 8.46063 37.1419 6.91044 37.1419C5.99599 37.1371 5.08977 37.3144 4.24486 37.6633C3.39994 38.0122 2.6333 38.5259 1.98983 39.174C1.34637 39.8222 0.83901 40.592 0.497468 41.4382C0.155926 42.2845 -0.0129355 43.1902 0.000772463 44.1023C0.000772463 47.9406 3.20999 51.0599 7.15459 51.0599C8.74596 51.0599 10.3432 50.5669 11.3198 49.7717L11.3404 49.7541V49.3873L11.2492 49.4547C10.0668 50.3258 8.62351 50.7716 7.15459 50.7195Z" fill="white"/>
<path d="M17.1205 41.4349C15.9876 41.4111 14.8694 41.694 13.8848 42.2536H13.8584L13.6142 44.1229H13.9672V44.0877C14.532 42.6205 15.6086 41.8017 16.997 41.8017C17.3676 41.8017 18.2707 41.8487 18.6472 42.2654C18.7099 42.3357 18.7564 42.419 18.7834 42.5092C18.8103 42.5995 18.817 42.6946 18.8031 42.7877C18.7237 43.668 17.1588 44.5278 16.491 44.9005C16.3822 44.9592 16.291 45.0091 16.2322 45.0472C16.0645 45.1499 15.8851 45.2526 15.6968 45.3612C14.5496 46.0303 13.12 46.8607 12.8318 48.2164C12.7575 48.5207 12.7555 48.8381 12.826 49.1432C12.8965 49.4484 13.0374 49.733 13.2377 49.9741C13.7907 50.6549 14.7996 51.0628 15.9351 51.0628C17.0705 51.0628 17.7765 50.7694 18.856 50.2793L19.7738 50.9278H20.1003V44.1023C20.1003 42.3563 19.0678 41.4349 17.1176 41.4349M18.806 43.6827V49.9096C18.0767 50.2854 17.2731 50.4959 16.4528 50.5258C15.7027 50.5258 15.1379 50.3145 14.7761 49.8949C14.6038 49.6793 14.4791 49.4299 14.4101 49.1629C14.3412 48.8958 14.3296 48.6173 14.3761 48.3455C14.5084 47.3625 15.1144 46.7375 16.8734 45.3641L17.0764 45.2116C17.7128 44.7725 18.2944 44.2592 18.809 43.6827H18.806Z" fill="white"/>
<path d="M27.26 41.4349C25.8392 41.4349 24.8832 41.969 24.0978 43.2103V42.148C24.1033 42.0836 24.0945 42.0187 24.0721 41.9581C24.0497 41.8974 24.0143 41.8423 23.9683 41.7967C23.9224 41.7512 23.867 41.7162 23.806 41.6942C23.745 41.6723 23.68 41.6639 23.6154 41.6697H21.5564V42.013H21.6505C22.6418 42.013 22.8271 42.4503 22.8271 43.3687V50.9308H24.1214V44.701C24.1189 44.3825 24.187 44.0675 24.3207 43.7784C24.4545 43.4892 24.6506 43.2331 24.895 43.0283C25.1492 42.8036 25.4469 42.6333 25.7697 42.5278C26.0925 42.4223 26.4335 42.3839 26.7717 42.415C27.1313 42.464 27.4752 42.5934 27.7777 42.7936L27.8365 42.8317L28.3072 41.567L28.2484 41.5523C27.9326 41.4749 27.6087 41.4355 27.2835 41.4349" fill="white"/>
<path d="M33.5814 41.4349C31.1752 41.4349 28.7366 43.09 28.7366 46.2503C28.7366 49.4107 31.1811 51.0599 33.5814 51.0599C35.9817 51.0599 38.4261 49.4078 38.4261 46.2474C38.4261 43.087 35.9905 41.432 33.5814 41.432M33.5814 50.7166C31.484 50.7166 30.128 48.9559 30.128 46.2474C30.128 43.5389 31.484 41.7753 33.5814 41.7753C35.6787 41.7753 37.0171 43.536 37.0171 46.2474C37.0171 48.9588 35.6699 50.7195 33.5814 50.7195V50.7166Z" fill="white"/>
<path d="M41.3588 37.1419H39.2997V37.4852H39.3938C40.3851 37.4852 40.5704 37.9224 40.5704 38.8409V50.9278H41.8441V37.6026C41.8506 37.5405 41.8431 37.4777 41.8222 37.4189C41.8012 37.3601 41.7674 37.3067 41.7232 37.2625C41.6789 37.2184 41.6254 37.1847 41.5664 37.1638C41.5074 37.1429 41.4445 37.1354 41.3823 37.1419" fill="white"/>
<path d="M45.5269 41.6697H43.4532V42.013H43.5355C44.5268 42.013 44.7121 42.4503 44.7121 43.3717V50.9308H46.0064V42.1275C46.0101 42.0641 46 42.0007 45.9768 41.9416C45.9536 41.8825 45.9179 41.8291 45.872 41.785C45.8262 41.741 45.7714 41.7073 45.7113 41.6864C45.6512 41.6655 45.5873 41.6578 45.524 41.6638" fill="white"/>
<path d="M45.2151 38.1278C44.955 38.1316 44.7065 38.2364 44.5225 38.42C44.3386 38.6035 44.2335 38.8513 44.2297 39.1109C44.2274 39.3086 44.2842 39.5025 44.3929 39.6679C44.5015 39.8333 44.6572 39.9626 44.8398 40.0393C45.0225 40.1161 45.224 40.1368 45.4185 40.0988C45.613 40.0608 45.7918 39.9658 45.9319 39.826C46.0721 39.6861 46.1673 39.5078 46.2054 39.3138C46.2435 39.1197 46.2228 38.9187 46.1459 38.7365C46.0689 38.5542 45.9393 38.399 45.7735 38.2906C45.6077 38.1822 45.4133 38.1255 45.2151 38.1278Z" fill="white"/>
<path d="M53.069 41.4349C52.4661 41.4332 51.8719 41.5785 51.3382 41.8583C50.8045 42.138 50.3474 42.5438 50.0069 43.0401V42.1597C50.014 42.0963 50.007 42.0322 49.9864 41.9718C49.9658 41.9114 49.9321 41.8562 49.8878 41.8103C49.8434 41.7643 49.7894 41.7287 49.7297 41.7059C49.6699 41.6832 49.6059 41.6738 49.5421 41.6785H47.4831V42.0218H47.5566C48.5479 42.0218 48.7332 42.4591 48.7332 43.3775V50.9396H50.0069V44.4515C50.0069 43.1545 51.4159 41.837 52.8014 41.837C53.0998 41.8209 53.3983 41.866 53.6786 41.9695C53.9588 42.0729 54.2149 42.2326 54.431 42.4385C55.184 43.1809 55.3428 44.4926 55.3428 45.4375V50.9278H56.6371V45.1089C56.6371 42.7408 55.3723 41.4349 53.072 41.4349" fill="white"/>
<path d="M62.6084 41.4349C61.4756 41.4115 60.3575 41.6944 59.3727 42.2536H59.3463L59.1021 44.1229H59.4551V44.0877C60.0199 42.6205 61.0965 41.8017 62.4878 41.8017C62.8585 41.8017 63.7615 41.8487 64.1351 42.2654C64.1977 42.3359 64.2443 42.4191 64.2717 42.5092C64.2991 42.5994 64.3067 42.6944 64.2939 42.7877C64.2116 43.668 62.6467 44.5278 61.979 44.9005C61.8701 44.9592 61.7819 45.0091 61.7201 45.0472C61.5524 45.1499 61.373 45.2526 61.1847 45.3612C60.0375 46.0303 58.6109 46.8607 58.3226 48.2164C58.2506 48.5181 58.2493 48.8323 58.3186 49.1345C58.388 49.4368 58.5263 49.7191 58.7227 49.9595C59.2757 50.6403 60.2846 51.0481 61.4201 51.0481C62.5555 51.0481 63.2615 50.7547 64.341 50.2646L65.2617 50.9132H65.597V44.1023C65.597 42.3563 64.5675 41.4349 62.6143 41.4349M64.3057 43.6827V49.9096C63.5708 50.2874 62.7611 50.4979 61.9348 50.5258C61.1877 50.5258 60.6229 50.3145 60.2582 49.8949C60.0858 49.6793 59.9611 49.4299 59.8922 49.1629C59.8232 48.8959 59.8116 48.6173 59.8581 48.3455C59.9905 47.3625 60.5994 46.7375 62.3584 45.3641L62.5584 45.2145C63.1965 44.7731 63.7809 44.259 64.2998 43.6827H64.3057Z" fill="white"/>
<path d="M80.3989 43.6006C81.7902 43.3453 83.6346 42.6205 83.6346 40.5634C83.6346 38.3831 81.7314 37.2769 77.975 37.2769H73.6245V37.6202H73.7186C74.704 37.6202 74.8952 38.075 74.8952 38.9759V50.9278H79.0605C81.6343 50.9278 84.6494 49.9624 84.6494 47.2363C84.6494 45.0032 82.5903 43.8324 80.4165 43.6006M78.0015 43.5066H76.1778V37.6202H78.0015C80.8224 37.6202 82.252 38.6091 82.252 40.5546C82.252 42.5001 80.7636 43.5066 77.9839 43.5066H78.0015ZM83.2227 47.2451C83.2227 48.2516 82.8168 50.5933 79.0516 50.5933H76.1601V43.8441H79.0516C82.8168 43.847 83.2227 46.2181 83.2227 47.2451Z" fill="white"/>
<path d="M90.2206 41.4349C89.0879 41.4121 87.9699 41.695 86.985 42.2537H86.9614L86.7173 44.1229H87.0703L87.085 44.0877C87.6498 42.6205 88.7264 41.8018 90.1148 41.8018C90.4854 41.8018 91.3884 41.8487 91.765 42.2654C91.8277 42.3357 91.8742 42.419 91.9012 42.5093C91.9281 42.5995 91.9348 42.6946 91.9209 42.7877C91.8414 43.668 90.2765 44.5278 89.6088 44.9005C89.5 44.9592 89.4088 45.0091 89.35 45.0472C89.1823 45.1499 89.0029 45.2526 88.8146 45.3642C87.6674 46.0303 86.2378 46.8607 85.9495 48.2164C85.8773 48.5183 85.876 48.8327 85.946 49.1351C86.0159 49.4375 86.155 49.7197 86.3525 49.9595C86.9055 50.6403 87.9145 51.0482 89.0499 51.0482C90.1854 51.0482 90.8913 50.7547 91.9709 50.2647L92.8916 50.9132H93.2151V44.1023C93.2151 42.3564 92.1827 41.4349 90.2324 41.4349M91.9209 43.6827V49.9096C91.1871 50.2875 90.3783 50.498 89.5529 50.5258C88.8028 50.5258 88.2381 50.3145 87.8762 49.8949C87.7039 49.6793 87.5792 49.4299 87.5103 49.1629C87.4413 48.8959 87.4297 48.6173 87.4762 48.3455C87.6086 47.3625 88.2145 46.7375 89.9736 45.3642L90.1765 45.2145C90.8123 44.7736 91.3939 44.2594 91.9091 43.6827H91.9209Z" fill="white"/>
<path d="M96.5214 37.1419H94.4623V37.4852H94.5565C95.5478 37.4852 95.7331 37.9224 95.7331 38.8409V50.9278H97.0068V37.6026C97.0132 37.5405 97.0057 37.4777 96.9848 37.4189C96.9639 37.3601 96.9301 37.3067 96.8858 37.2625C96.8416 37.2184 96.788 37.1847 96.729 37.1638C96.6701 37.1429 96.6072 37.1354 96.5449 37.1419" fill="white"/>
<path d="M100.495 37.1419H98.4364V37.4852H98.5305C99.5218 37.4852 99.7071 37.9224 99.7071 38.8409V50.9278H100.984V37.6026C100.99 37.5402 100.983 37.4772 100.962 37.4181C100.941 37.3591 100.906 37.3055 100.862 37.2613C100.817 37.2171 100.763 37.1834 100.704 37.1628C100.645 37.1421 100.581 37.135 100.519 37.1419" fill="white"/>
<path d="M110.291 48.1049C110.291 49.2787 109.114 50.6637 107.614 50.6637C105.214 50.6637 104.967 48.1431 104.967 47.0632V42.148C104.972 42.0833 104.964 42.0182 104.942 41.9571C104.92 41.8961 104.884 41.8407 104.838 41.7947C104.792 41.7488 104.737 41.7136 104.676 41.6914C104.614 41.6693 104.549 41.6609 104.484 41.6668H102.41V42.0101H102.505C103.496 42.0101 103.681 42.4473 103.681 43.3687V47.4094C103.681 49.757 104.987 51.0628 107.361 51.0628C107.953 51.0776 108.537 50.934 109.055 50.6471C109.572 50.3602 110.003 49.9404 110.303 49.4313V50.9278H111.579V41.6697H110.303L110.291 48.1049Z" fill="white"/>
<path d="M119.657 49.2699V49.3638C119.657 50.3527 119.218 50.5376 118.298 50.5376H114.721L119.942 42.0512C119.965 42.0126 119.977 41.9685 119.977 41.9235C119.977 41.8786 119.965 41.8345 119.942 41.7959C119.921 41.7592 119.891 41.7289 119.854 41.7083C119.817 41.6876 119.775 41.6773 119.733 41.6785H113.721C113.658 41.672 113.595 41.6795 113.536 41.7006C113.476 41.7216 113.423 41.7556 113.378 41.8001C113.334 41.8446 113.3 41.8984 113.28 41.9576C113.259 42.0168 113.252 42.0798 113.259 42.1421V43.3365H113.603V43.2631C113.603 42.2625 114.059 42.0893 114.962 42.0893H118.412L112.956 50.9278H119.512C119.577 50.9381 119.643 50.9337 119.705 50.9152C119.768 50.8967 119.825 50.8644 119.873 50.8207C119.922 50.7771 119.959 50.7232 119.984 50.663C120.009 50.6028 120.019 50.5379 120.015 50.473V49.2699H119.657Z" fill="white"/>
<path d="M21.374 58.6659V55.4234H21.6564L23.1418 57.9529H22.9948L24.4655 55.4234H24.7479V58.6659H24.4185V55.9369H24.4979L23.1418 58.2522H22.9801L21.6152 55.9369H21.7034V58.6659H21.374Z" fill="white"/>
<path d="M27.6924 58.3696H29.6456V58.663H27.3571V55.4351H29.5838V55.7286H27.7012L27.6924 58.3696ZM27.6542 56.873H29.372V57.1664H27.6512L27.6542 56.873ZM28.166 55.1681L28.8014 54.5812H29.2426L28.4896 55.1681H28.166Z" fill="white"/>
<path d="M31.9959 58.6659V55.438H33.3166C33.6338 55.4306 33.948 55.5011 34.2314 55.6435C34.4864 55.7771 34.6977 55.9808 34.8403 56.2303C34.983 56.4882 35.0578 56.778 35.0578 57.0725C35.0578 57.3671 34.983 57.6568 34.8403 57.9147C34.6994 58.1657 34.4877 58.3697 34.2314 58.5016C33.9482 58.6449 33.6341 58.7164 33.3166 58.7099L31.9959 58.6659ZM32.34 58.3725H33.299C33.5594 58.3794 33.8173 58.3209 34.0491 58.2023C34.2541 58.0957 34.4253 57.9341 34.5432 57.7357C34.6591 57.5242 34.7198 57.2871 34.7198 57.0461C34.7198 56.8051 34.6591 56.568 34.5432 56.3565C34.4251 56.159 34.2539 55.9984 34.0491 55.8929C33.8173 55.7743 33.5594 55.7158 33.299 55.7227H32.34V58.3725Z" fill="white"/>
<path d="M37.7142 55.4234H37.3701V58.6659H37.7142V55.4234Z" fill="white"/>
<path d="M41.7235 58.6894C41.4922 58.6919 41.2625 58.65 41.047 58.5662C40.8465 58.4884 40.6635 58.3717 40.5087 58.2228C40.3558 58.0735 40.2347 57.8948 40.1527 57.6976C39.9826 57.2758 39.9826 56.8047 40.1527 56.3829C40.2357 56.1833 40.3581 56.0025 40.5128 55.8512C40.6675 55.6999 40.8512 55.5814 41.0529 55.5026C41.2684 55.4188 41.4981 55.3769 41.7294 55.3794C41.9565 55.3784 42.1819 55.4192 42.3942 55.4997C42.5947 55.5731 42.7744 55.6939 42.9178 55.8518L42.7001 56.0719C42.5769 55.9423 42.4262 55.842 42.2589 55.7785C42.0919 55.7189 41.9156 55.6891 41.7382 55.6904C41.5521 55.6884 41.3673 55.7223 41.194 55.7902C41.0299 55.8565 40.8816 55.9565 40.7587 56.0836C40.6339 56.205 40.5339 56.3496 40.4646 56.5091C40.395 56.6785 40.36 56.8601 40.3616 57.0432C40.36 57.2272 40.395 57.4098 40.4646 57.5802C40.5347 57.7394 40.6345 57.8838 40.7587 58.0057C40.8833 58.1309 41.0311 58.2306 41.194 58.2991C41.5372 58.4282 41.9157 58.4282 42.2589 58.2991C42.4262 58.2355 42.5769 58.1353 42.7001 58.0057L42.9178 58.2258C42.7737 58.3836 42.5943 58.5053 42.3942 58.5808C42.1799 58.6616 41.9526 58.7023 41.7235 58.7011" fill="white"/>
<path d="M44.5886 58.6659L46.0594 55.4381H46.3976L47.8831 58.6659H47.536L46.1829 55.6229H46.3241L44.9592 58.6659H44.5886ZM45.1769 57.8003L45.2798 57.5215H47.1683L47.2713 57.8003H45.1769Z" fill="white"/>
<path d="M54.1603 58.6894C53.9261 58.6918 53.6936 58.65 53.475 58.5662C53.2736 58.4885 53.0897 58.3718 52.9337 58.2228C52.7799 58.0736 52.6578 57.895 52.5749 57.6976C52.4047 57.2758 52.4047 56.8047 52.5749 56.3829C52.6579 56.1857 52.7811 56.0078 52.9367 55.8606C53.0928 55.7098 53.2779 55.592 53.4809 55.5144C53.6997 55.4315 53.9322 55.3907 54.1662 55.394C54.3978 55.3914 54.6279 55.4302 54.8457 55.5085C55.0473 55.5815 55.228 55.7023 55.3723 55.8606L55.1605 56.0778C55.0328 55.948 54.8782 55.8479 54.7075 55.7843C54.5385 55.7245 54.3603 55.6947 54.1809 55.6963C53.9909 55.6934 53.8021 55.7273 53.625 55.7961C53.4591 55.8623 53.3089 55.9622 53.1838 56.0895C53.057 56.2093 52.9568 56.3542 52.8896 56.515C52.8176 56.6838 52.7815 56.8656 52.7837 57.0491C52.7821 57.2324 52.8182 57.4142 52.8896 57.5831C52.9567 57.7448 53.0569 57.8907 53.1838 58.0116C53.3105 58.1369 53.4603 58.2365 53.625 58.305C53.8003 58.373 53.987 58.4069 54.1751 58.4048C54.3539 58.4063 54.5318 58.3786 54.7016 58.3226C54.8746 58.2602 55.0314 58.1599 55.1605 58.0292L55.3546 58.2903C55.1941 58.4226 55.0093 58.5223 54.8104 58.5838C54.6006 58.6523 54.3811 58.687 54.1603 58.6865M55.0252 58.2316V57.0373H55.3546V58.2757L55.0252 58.2316Z" fill="white"/>
<path d="M58.2079 58.3696H60.164V58.663H57.8667V55.4351H60.0934V55.7286H58.2079V58.3696ZM58.1726 56.873H59.8905V57.1664H58.1726V56.873Z" fill="white"/>
<path d="M62.5114 58.6659V55.4234H62.7938L65.0382 58.2375H64.8881V55.4234H65.2264V58.6659H64.944L62.7085 55.8489H62.8555V58.6659H62.5114Z" fill="white"/>
<path d="M68.1709 58.3696H70.1241V58.663H67.8267V55.4351H70.0564V55.7286H68.1709V58.3696ZM68.1326 56.873H69.8505V57.1664H68.1326V56.873Z" fill="white"/>
<path d="M73.1068 58.6659V55.7198H71.9625V55.4234H74.5893V55.7198H73.448V58.6659H73.1068Z" fill="white"/>
<path d="M77.0249 55.4234H76.6807V58.6659H77.0249V55.4234Z" fill="white"/>
<path d="M81.0342 58.6894C80.8029 58.6919 80.5732 58.65 80.3577 58.5662C80.1575 58.4883 79.9758 58.3698 79.8239 58.2183C79.672 58.0668 79.5533 57.8855 79.4752 57.6858C79.3026 57.2645 79.3026 56.7925 79.4752 56.3712C79.5572 56.1748 79.6783 55.9971 79.8311 55.8489C79.9867 55.6987 80.1707 55.581 80.3724 55.5026C80.588 55.419 80.8176 55.3772 81.0489 55.3794C81.2761 55.3782 81.5015 55.419 81.7137 55.4997C81.9146 55.5723 82.0944 55.6933 82.2373 55.8518L82.0196 56.0719C81.8965 55.9423 81.7457 55.842 81.5784 55.7785C81.4125 55.7184 81.2372 55.6885 81.0607 55.6904C80.8745 55.6881 80.6897 55.722 80.5165 55.7902C80.352 55.8558 80.2036 55.9559 80.0812 56.0836C79.9563 56.205 79.8564 56.3496 79.787 56.5091C79.716 56.6781 79.6809 56.86 79.6841 57.0432C79.681 57.2274 79.716 57.4102 79.787 57.5802C79.8571 57.7394 79.9569 57.8838 80.0812 58.0057C80.2052 58.1315 80.3532 58.2313 80.5165 58.2991C80.8586 58.4283 81.2363 58.4283 81.5784 58.2991C81.7457 58.2355 81.8965 58.1352 82.0196 58.0057L82.2373 58.2258C82.0938 58.3842 81.9142 58.506 81.7137 58.5808C81.5005 58.6618 81.2741 58.7026 81.046 58.7011" fill="white"/>
<path d="M84.8465 55.4234H84.5023V58.6659H84.8465V55.4234Z" fill="white"/>
<path d="M88.341 58.6894C88.1045 58.6908 87.8696 58.6511 87.6468 58.572C87.4554 58.5138 87.2795 58.4136 87.132 58.2786L87.2673 58.0174C87.4024 58.1384 87.5591 58.2329 87.7292 58.2962C87.924 58.3727 88.1316 58.4116 88.341 58.4106C88.51 58.4158 88.6785 58.3899 88.8381 58.3343C88.9548 58.2956 89.0572 58.2231 89.1323 58.126C89.1931 58.0403 89.225 57.9375 89.2235 57.8326C89.2283 57.7192 89.1881 57.6085 89.1117 57.5244C89.0295 57.4413 88.9287 57.3789 88.8175 57.3425C88.6909 57.2948 88.5612 57.2556 88.4293 57.2251L88.0027 57.1166C87.8657 57.0803 87.7334 57.0281 87.6086 56.961C87.4909 56.9001 87.3899 56.8115 87.3144 56.7028C87.2374 56.5767 87.1996 56.4307 87.2056 56.2832C87.2053 56.1271 87.2502 55.9742 87.335 55.843C87.4305 55.6984 87.5666 55.5851 87.7262 55.5173C87.9411 55.4277 88.173 55.3857 88.4057 55.394C88.589 55.3942 88.7713 55.4209 88.947 55.4733C89.1122 55.517 89.2692 55.5874 89.4117 55.6816L89.2941 55.9545C89.1584 55.8647 89.0095 55.7964 88.8528 55.752C88.7055 55.7099 88.5531 55.6881 88.3998 55.6875C88.2354 55.6823 88.0715 55.7092 87.9174 55.7667C87.8007 55.8068 87.6984 55.8803 87.6233 55.978C87.5648 56.0646 87.534 56.167 87.535 56.2714C87.5323 56.3795 87.5713 56.4846 87.6439 56.5649C87.7252 56.649 87.8263 56.7116 87.938 56.7468C88.0668 56.7935 88.1984 56.8317 88.3322 56.8613L88.7558 56.9728C88.8908 57.0121 89.0218 57.0642 89.147 57.1283C89.2637 57.1879 89.3646 57.2744 89.4411 57.3806C89.5178 57.5047 89.5557 57.6488 89.55 57.7944C89.5497 57.9495 89.5048 58.1013 89.4205 58.2316C89.3215 58.3745 89.1838 58.4865 89.0235 58.5544C88.8064 58.6437 88.5727 58.6857 88.3381 58.6777" fill="white"/>
<path d="M92.4268 58.6659V55.7198H91.2825V55.4234H93.9123V55.7198H92.768V58.6659H92.4268Z" fill="white"/>
<path d="M95.3066 58.6659L96.7773 55.4381H97.1156L98.6011 58.6659H98.2393L96.8744 55.6229H97.0126L95.6478 58.6659H95.3066ZM95.8949 57.8003L95.9949 57.5215H97.8863L97.9863 57.8003H95.8949Z" fill="white"/>
<path d="M74.8805 23.5877L74.9688 24.3272L74.9335 24.3683C73.1686 26.1964 70.0888 27.5668 66.8972 27.9512C65.5328 28.1198 64.1513 28.0951 62.7938 27.8779C62.2978 27.8029 61.8067 27.699 61.323 27.5668C55.8664 26.0996 51.5953 21.5454 50.8952 15.7322C50.8952 15.653 50.8746 15.5709 50.8717 15.4916C50.8423 15.2598 50.8246 15.0309 50.8158 14.805C50.6563 12.4271 51.1139 10.0483 52.1443 7.89824C53.1748 5.74816 54.7435 3.89935 56.6989 2.53023C57.1004 2.24301 57.5178 1.9785 57.949 1.73794C59.5368 0.872293 61.2763 0.318443 63.0732 0.10639C66.1736 -0.266283 69.4887 0.355817 71.7331 1.7262L71.7743 1.76141L72.2243 5.48814L71.5566 5.56737L71.5301 5.48521C69.8711 0.72849 65.5676 0.49667 63.1526 0.790113C61.8666 0.938466 60.6208 1.32985 59.4816 1.94335C59.0147 2.19326 58.569 2.48081 58.1491 2.80313C55.0104 5.20057 53.2632 9.44963 53.6191 14.4528C53.6338 14.6758 53.6515 14.9047 53.6809 15.1366C53.6809 15.2187 53.6956 15.2979 53.7044 15.3801C54.4104 21.249 57.9667 25.6506 62.5908 26.9418C63.9636 27.3212 65.3976 27.4289 66.8119 27.2587C70.0888 26.8684 72.6744 25.7181 74.7129 23.7374L74.8805 23.5877Z" fill="white"/>
<path d="M59.3139 13.2673C62.1172 12.7567 65.8647 11.2954 65.8677 7.14023C65.8677 4.31143 64.2822 2.38058 61.1347 1.35939C60.6391 1.1982 60.1342 1.06689 59.6228 0.966179C57.9183 0.636785 56.1846 0.481436 54.4486 0.502539H45.6505V1.17452H54.4486C55.7346 1.15578 57.0183 1.28975 58.2726 1.57361C58.7657 1.69373 59.2478 1.8547 59.714 2.05485C61.9172 2.99681 63.0291 4.69584 63.0291 7.13729C63.0291 11.0283 60.0581 13.0795 54.4457 13.0766H50.9747C50.957 13.3025 50.9482 13.5314 50.9482 13.7662H56.5989C64.1998 13.7662 65.0176 18.5552 65.0146 20.6122C65.0146 22.1176 64.5616 25.1107 61.22 26.5486C60.7822 26.7353 60.3296 26.8855 59.8669 26.9975C58.7916 27.2516 57.6892 27.3738 56.5842 27.3614H48.1743V28.0539H56.5842C58.1707 28.0613 59.7519 27.8701 61.2906 27.4846C61.7737 27.3657 62.2492 27.2178 62.7143 27.0415C65.6235 25.9646 67.8414 23.9369 67.8444 20.6093C67.8444 16.1049 63.7027 13.7368 59.3139 13.2732" fill="white"/>
<path d="M62.9325 3.77127L53.7135 6.7081L53.9229 7.36222L63.1419 4.42539L62.9325 3.77127Z" fill="white"/>
<path d="M63.872 7.39692L52.5682 10.9979L52.7776 11.652L64.0814 8.05104L63.872 7.39692Z" fill="white"/>
<path d="M62.0418 14.1622L51.9793 17.3678L52.1887 18.0219L62.2512 14.8164L62.0418 14.1622Z" fill="white"/>
<path d="M65.067 17.0392L54.3937 20.4393L54.6031 21.0934L65.2764 17.6933L65.067 17.0392Z" fill="white"/>
<path d="M66.627 20.6218L55.9536 24.022L56.163 24.6761L66.8364 21.276L66.627 20.6218Z" fill="white"/>
</svg>
