<svg width="21" height="19" viewBox="0 0 21 19" fill="none" xmlns="http://www.w3.org/2000/svg">
<path d="M3.78219 1.87286C3.78219 1.60286 3.78219 1.36286 3.78219 1.13286C3.77943 1.03231 3.7972 0.932249 3.83442 0.838795C3.87164 0.745341 3.92752 0.660457 3.99865 0.589327C4.06978 0.518198 4.15466 0.462317 4.24812 0.425099C4.34157 0.387882 4.44163 0.370108 4.54219 0.372864C4.64154 0.374154 4.73965 0.395172 4.83081 0.434698C4.92197 0.474224 5.00436 0.531469 5.07321 0.60311C5.14206 0.674751 5.19599 0.759358 5.23187 0.852017C5.26774 0.944675 5.28484 1.04354 5.28219 1.14286V1.85286H14.2822C14.2822 1.61286 14.2822 1.38286 14.2822 1.15286C14.27 1.04778 14.2802 0.941308 14.312 0.840437C14.3439 0.739565 14.3968 0.646577 14.4671 0.567579C14.5375 0.488582 14.6238 0.425363 14.7203 0.382074C14.8168 0.338786 14.9214 0.316406 15.0272 0.316406C15.133 0.316406 15.2376 0.338786 15.3341 0.382074C15.4306 0.425363 15.5169 0.488582 15.5872 0.567579C15.6576 0.646577 15.7105 0.739565 15.7423 0.840437C15.7742 0.941308 15.7844 1.04778 15.7722 1.15286C15.7722 1.38286 15.7722 1.61286 15.7722 1.87286C16.3022 1.87286 16.7722 1.87286 17.3122 1.87286C17.8057 1.87915 18.283 2.0497 18.6687 2.35757C19.0545 2.66543 19.3266 3.09305 19.4422 3.57286C19.495 3.79212 19.5186 4.01742 19.5122 4.24286C19.5122 5.90286 19.5122 7.55286 19.5122 9.24286C19.512 9.38699 19.5655 9.52602 19.6622 9.63286C20.2747 10.3163 20.6969 11.1485 20.8867 12.0463C21.0765 12.9442 21.0272 13.8761 20.7437 14.7489C20.4602 15.6217 19.9524 16.4047 19.2712 17.0197C18.5901 17.6346 17.7593 18.0598 16.8622 18.2529C16.4943 18.3335 16.1188 18.3738 15.7422 18.3729H2.38219C2.06846 18.3874 1.75517 18.3359 1.46266 18.2215C1.17015 18.1072 0.904955 17.9326 0.684294 17.7091C0.463632 17.4856 0.292435 17.2182 0.181814 16.9242C0.0711927 16.6303 0.0236209 16.3164 0.0421862 16.0029V4.21286C0.0279593 3.90179 0.0787482 3.59117 0.191311 3.30082C0.303873 3.01048 0.475736 2.7468 0.695928 2.52661C0.91612 2.30641 1.1798 2.13455 1.47015 2.02199C1.76049 1.90943 2.07111 1.85864 2.38219 1.87286H3.78219ZM12.0722 16.8729C11.2281 16.0347 10.6956 14.9334 10.5629 13.7514C10.4301 12.5693 10.7051 11.3774 11.3422 10.3729C13.0422 7.90286 15.2922 7.37286 18.0422 8.37286V7.12286H1.54219V15.9329C1.54219 16.5729 1.81219 16.8429 2.44219 16.8429H12.0422L12.0722 16.8729ZM15.7722 16.8729C16.511 16.8748 17.2339 16.6579 17.8496 16.2494C18.4653 15.841 18.9462 15.2594 19.2316 14.5779C19.5171 13.8964 19.5943 13.1457 19.4536 12.4203C19.3128 11.695 18.9604 11.0277 18.4407 10.5024C17.9211 9.97722 17.2575 9.61768 16.5337 9.46919C15.81 9.3207 15.0584 9.38991 14.3739 9.66809C13.6895 9.94626 13.1027 10.4209 12.6877 11.0322C12.2727 11.6435 12.0481 12.364 12.0422 13.1029C12.0448 14.0922 12.4383 15.0405 13.137 15.741C13.8356 16.4415 14.7828 16.8376 15.7722 16.8429V16.8729ZM14.2522 3.37286H5.25219C5.15219 3.84286 4.89219 4.10286 4.50219 4.10286C4.11219 4.10286 3.89219 3.87286 3.76219 3.37286C3.24219 3.37286 2.76219 3.37286 2.20219 3.37286C2.03592 3.3862 1.87966 3.45764 1.76081 3.57467C1.64196 3.69169 1.5681 3.84683 1.55219 4.01286C1.55219 4.53286 1.55219 5.06286 1.55219 5.60286H18.0422C18.0422 5.06286 18.0422 4.53286 18.0422 4.01286C18.0246 3.8352 17.9408 3.67068 17.8073 3.55208C17.6739 3.43347 17.5007 3.36948 17.3222 3.37286H15.7822C15.6622 3.87286 15.4022 4.12286 15.0122 4.11286C14.6222 4.10286 14.3522 3.85286 14.2522 3.37286Z" fill="white"/>
<path d="M4.54219 12.3729C4.63936 12.3729 4.73559 12.3537 4.82537 12.3165C4.91515 12.2793 4.99673 12.2248 5.06545 12.1561C5.13416 12.0874 5.18867 12.0058 5.22586 11.9161C5.26305 11.8263 5.28219 11.73 5.28219 11.6329C5.28351 11.5335 5.26509 11.4349 5.22799 11.3428C5.19089 11.2506 5.13586 11.1668 5.06608 11.0961C4.99631 11.0254 4.91318 10.9692 4.82153 10.9309C4.72988 10.8926 4.63152 10.8729 4.53219 10.8729C4.33146 10.8781 4.1407 10.9615 4.0006 11.1053C3.86049 11.2492 3.78212 11.4421 3.78219 11.6429C3.78743 11.84 3.87013 12.0272 4.01237 12.1638C4.15462 12.3005 4.34497 12.3756 4.54219 12.3729ZM8.28219 10.8729C8.08327 10.8729 7.89251 10.9519 7.75186 11.0925C7.6112 11.2332 7.53219 11.424 7.53219 11.6229C7.53219 11.8218 7.6112 12.0125 7.75186 12.1532C7.89251 12.2938 8.08327 12.3729 8.28219 12.3729C8.4811 12.3729 8.67186 12.2938 8.81252 12.1532C8.95317 12.0125 9.03219 11.8218 9.03219 11.6229C9.03219 11.424 8.95317 11.2332 8.81252 11.0925C8.67186 10.9519 8.4811 10.8729 8.28219 10.8729ZM4.54219 7.87286C4.3943 7.87095 4.24915 7.91279 4.12499 7.99314C4.00082 8.07349 3.90318 8.18876 3.84435 8.32445C3.78552 8.46014 3.76812 8.6102 3.79433 8.75575C3.82055 8.9013 3.88921 9.03586 3.99169 9.14249C4.09418 9.24913 4.2259 9.32308 4.37029 9.35506C4.51469 9.38704 4.66532 9.37561 4.80324 9.32221C4.94116 9.26882 5.06021 9.17583 5.14543 9.05496C5.23065 8.93408 5.27823 8.79071 5.28219 8.64287C5.28759 8.5419 5.27251 8.44088 5.23788 8.34588C5.20324 8.25089 5.14975 8.16388 5.08063 8.09009C5.0115 8.01629 4.92817 7.95724 4.83564 7.91647C4.74311 7.8757 4.64329 7.85407 4.54219 7.85286V7.87286ZM9.04219 8.59286C9.04222 8.49398 9.02244 8.39609 8.98401 8.30498C8.94557 8.21387 8.88927 8.13139 8.81842 8.06241C8.74757 7.99342 8.66362 7.93934 8.57152 7.90335C8.47941 7.86736 8.38103 7.85019 8.28219 7.85286C8.08327 7.85286 7.89251 7.93188 7.75186 8.07253C7.6112 8.21319 7.53219 8.40395 7.53219 8.60286C7.53219 8.80178 7.6112 8.99254 7.75186 9.13319C7.89251 9.27385 8.08327 9.35286 8.28219 9.35286C8.38274 9.35562 8.4828 9.33785 8.57625 9.30063C8.66971 9.26341 8.75459 9.20753 8.82572 9.1364C8.89685 9.06527 8.95273 8.98039 8.98995 8.88693C9.02717 8.79348 9.04494 8.69342 9.04219 8.59286ZM4.53219 13.8429C4.38385 13.8429 4.23885 13.8869 4.11551 13.9693C3.99217 14.0517 3.89604 14.1688 3.83928 14.3059C3.78251 14.4429 3.76766 14.5937 3.7966 14.7392C3.82554 14.8847 3.89697 15.0183 4.00186 15.1232C4.10675 15.2281 4.24038 15.2995 4.38587 15.3285C4.53135 15.3574 4.68215 15.3425 4.8192 15.2858C4.95624 15.229 5.07338 15.1329 5.15579 15.0095C5.2382 14.8862 5.28219 14.7412 5.28219 14.5929C5.28353 14.494 5.26505 14.3959 5.22784 14.3043C5.19062 14.2127 5.13543 14.1295 5.06551 14.0595C4.9956 13.9896 4.91238 13.9344 4.82078 13.8972C4.72918 13.86 4.63105 13.8415 4.53219 13.8429ZM8.27219 13.8429C8.12428 13.8429 7.97968 13.8866 7.85657 13.9686C7.73346 14.0506 7.63733 14.1671 7.58028 14.3036C7.52324 14.4401 7.50781 14.5903 7.53595 14.7355C7.56409 14.8807 7.63453 15.0144 7.73842 15.1197C7.84231 15.2249 7.97501 15.2972 8.11983 15.3272C8.26466 15.3573 8.41513 15.3438 8.55234 15.2886C8.68954 15.2334 8.80735 15.1388 8.89096 15.0168C8.97456 14.8948 9.02021 14.7508 9.02219 14.6029C9.02351 14.5035 9.00509 14.4049 8.96799 14.3128C8.93089 14.2206 8.87586 14.1368 8.80608 14.0661C8.73631 13.9954 8.65318 13.9392 8.56153 13.9009C8.46988 13.8626 8.37152 13.8429 8.27219 13.8429Z" fill="white"/>
<path d="M4.54219 12.3729C4.34497 12.3756 4.15462 12.3005 4.01237 12.1638C3.87013 12.0272 3.78743 11.84 3.78219 11.6429C3.78212 11.4421 3.86049 11.2492 4.0006 11.1053C4.1407 10.9615 4.33146 10.8781 4.53219 10.8729C4.63152 10.8729 4.72988 10.8926 4.82153 10.9309C4.91318 10.9692 4.99631 11.0254 5.06608 11.0961C5.13586 11.1668 5.19089 11.2506 5.22799 11.3428C5.26509 11.4349 5.28351 11.5335 5.28219 11.6329C5.28219 11.73 5.26305 11.8263 5.22586 11.9161C5.18867 12.0058 5.13416 12.0874 5.06545 12.1561C4.99673 12.2248 4.91515 12.2793 4.82537 12.3165C4.73559 12.3537 4.63936 12.3729 4.54219 12.3729Z" fill="white"/>
<path d="M8.28219 10.8529C8.43009 10.8529 8.57469 10.8966 8.69781 10.9786C8.82092 11.0606 8.91704 11.1771 8.97409 11.3136C9.03114 11.4501 9.04656 11.6003 9.01842 11.7455C8.99028 11.8907 8.91984 12.0244 8.81595 12.1297C8.71206 12.2349 8.57936 12.3072 8.43454 12.3372C8.28972 12.3673 8.13924 12.3538 8.00204 12.2986C7.86483 12.2434 7.74702 12.1488 7.66342 12.0268C7.57982 11.9048 7.53416 11.7608 7.53219 11.6129C7.53086 11.5135 7.54928 11.4149 7.58638 11.3228C7.62348 11.2306 7.67851 11.1468 7.74829 11.0761C7.81807 11.0054 7.90119 10.9492 7.99285 10.9109C8.0845 10.8726 8.18285 10.8529 8.28219 10.8529Z" fill="white"/>
<path d="M4.54219 7.85286C4.64194 7.85278 4.74068 7.87287 4.83248 7.91192C4.92427 7.95097 5.00722 8.00818 5.07634 8.0801C5.14547 8.15203 5.19933 8.23718 5.23471 8.33046C5.27008 8.42373 5.28623 8.52319 5.28219 8.62286C5.28219 8.82178 5.20317 9.01254 5.06252 9.15319C4.92186 9.29385 4.7311 9.37286 4.53219 9.37286C4.33327 9.37286 4.14251 9.29385 4.00186 9.15319C3.8612 9.01254 3.78219 8.82178 3.78219 8.62286C3.78219 8.42395 3.8612 8.23319 4.00186 8.09253C4.14251 7.95188 4.33327 7.87286 4.53219 7.87286L4.54219 7.85286Z" fill="white"/>
<path d="M9.04219 8.59286C9.05438 8.69795 9.04421 8.80442 9.01233 8.90529C8.98046 9.00616 8.92761 9.09915 8.85725 9.17815C8.78689 9.25715 8.70061 9.32036 8.60409 9.36365C8.50756 9.40694 8.40297 9.42932 8.29719 9.42932C8.1914 9.42932 8.08681 9.40694 7.99028 9.36365C7.89376 9.32036 7.80748 9.25715 7.73712 9.17815C7.66676 9.09915 7.61391 9.00616 7.58204 8.90529C7.55016 8.80442 7.53999 8.69795 7.55219 8.59286C7.54949 8.39564 7.62459 8.2053 7.76122 8.06305C7.89785 7.9208 8.08502 7.83811 8.28219 7.83286C8.38274 7.83011 8.4828 7.84788 8.57625 7.8851C8.66971 7.92232 8.75459 7.9782 8.82572 8.04933C8.89685 8.12046 8.95273 8.20534 8.98995 8.2988C9.02717 8.39225 9.04494 8.49231 9.04219 8.59286Z" fill="white"/>
<path d="M4.53219 13.8429C4.68007 13.8409 4.82522 13.8828 4.94939 13.9631C5.07355 14.0435 5.17119 14.1588 5.23002 14.2945C5.28885 14.4301 5.30626 14.5802 5.28004 14.7257C5.25382 14.8713 5.18516 15.0059 5.08268 15.1125C4.9802 15.2191 4.84848 15.2931 4.70408 15.3251C4.55968 15.357 4.40905 15.3456 4.27113 15.2922C4.13321 15.2388 4.01416 15.1458 3.92894 15.025C3.84372 14.9041 3.79614 14.7607 3.79219 14.6129C3.78953 14.5135 3.80663 14.4147 3.84251 14.322C3.87838 14.2294 3.93231 14.1448 4.00116 14.0731C4.07001 14.0015 4.15241 13.9442 4.24357 13.9047C4.33473 13.8652 4.43283 13.8442 4.53219 13.8429Z" fill="white"/>
<path d="M8.27219 13.8429C8.42007 13.8409 8.56522 13.8828 8.68938 13.9631C8.81355 14.0435 8.91119 14.1588 8.97002 14.2945C9.02885 14.4301 9.04626 14.5802 9.02004 14.7257C8.99382 14.8713 8.92516 15.0059 8.82268 15.1125C8.7202 15.2191 8.58848 15.2931 8.44408 15.3251C8.29968 15.357 8.14905 15.3456 8.01113 15.2922C7.87321 15.2388 7.75416 15.1458 7.66894 15.025C7.58372 14.9041 7.53614 14.7607 7.53219 14.6129C7.52814 14.5132 7.54429 14.4137 7.57967 14.3205C7.61504 14.2272 7.66891 14.142 7.73803 14.0701C7.80715 13.9982 7.8901 13.941 7.9819 13.9019C8.07369 13.8629 8.17243 13.8428 8.27219 13.8429Z" fill="white"/>
<path d="M16.5122 11.8929C16.3022 12.5429 16.6722 13.0829 17.2522 13.5429C17.4434 13.7007 17.6207 13.8747 17.7822 14.0629C17.8559 14.1315 17.915 14.2143 17.956 14.3063C17.997 14.3983 18.019 14.4976 18.0208 14.5983C18.0226 14.699 18.004 14.7991 17.9663 14.8925C17.9286 14.9859 17.8724 15.0707 17.8012 15.1419C17.73 15.2131 17.6452 15.2693 17.5518 15.307C17.4584 15.3447 17.3584 15.3632 17.2577 15.3615C17.157 15.3597 17.0576 15.3376 16.9656 15.2966C16.8736 15.2557 16.7908 15.1966 16.7222 15.1229C16.2322 14.6329 15.7222 14.1229 15.2622 13.6429C15.1232 13.4884 15.0419 13.2905 15.0322 13.0829C15.0322 12.3429 15.0322 11.6129 15.0322 10.8829C15.02 10.7778 15.0302 10.6713 15.062 10.5704C15.0939 10.4696 15.1468 10.3766 15.2171 10.2976C15.2875 10.2186 15.3738 10.1554 15.4703 10.1121C15.5668 10.0688 15.6714 10.0464 15.7772 10.0464C15.883 10.0464 15.9876 10.0688 16.0841 10.1121C16.1806 10.1554 16.2669 10.2186 16.3373 10.2976C16.4076 10.3766 16.4605 10.4696 16.4923 10.5704C16.5242 10.6713 16.5344 10.7778 16.5222 10.8829L16.5122 11.8929Z" fill="white"/>
</svg>
