<svg width="33" height="16" viewBox="0 0 33 16" fill="none" xmlns="http://www.w3.org/2000/svg">
<path d="M15.4887 1.2845C17.5716 4.08156 19.6242 5.86075 22.2792 6.99115C24.915 8.1134 28.105 8.57826 32.4213 8.82719L32.4789 7.82885C28.1841 7.58116 25.1396 7.12214 22.6709 6.07107C20.2214 5.02815 18.2994 3.38458 16.2907 0.687244L15.4887 1.2845ZM16.1888 15.5321C18.163 13.2523 20.0795 11.8126 22.5588 10.8244C25.0568 9.82864 28.1508 9.28068 32.505 8.83128L32.4024 7.83656C28.0327 8.28756 24.8224 8.84556 22.1885 9.89543C19.536 10.9527 17.493 12.4983 15.4328 14.8774L16.1888 15.5321ZM32.2594 7.81915L0.346756 8.29059L0.361527 9.29048L32.2741 8.81904L32.2594 7.81915Z" fill="white"/>
</svg>
