<svg width="102" height="102" viewBox="0 0 102 102" fill="none" xmlns="http://www.w3.org/2000/svg">
<path d="M1 51C1 78.6142 23.3858 101 51 101C78.6142 101 101 78.6142 101 51C101 23.3858 78.6142 1 51 1C23.3858 1 1 23.3858 1 51Z" fill="#D9D9D9"/>
<path d="M51.1567 41.0368C45.3449 48.8413 39.8651 50.7605 27.6334 51.4659M51.2688 61.234C45.5381 54.6163 40.0203 52.7533 27.6283 51.4743M27.8939 51.4533L73.2243 52.1229M1 51C1 78.6142 23.3858 101 51 101C78.6142 101 101 78.6142 101 51C101 23.3858 78.6142 1 51 1C23.3858 1 1 23.3858 1 51Z" stroke="#303030"/>
</svg>
