<svg width="102" height="102" viewBox="0 0 102 102" fill="none" xmlns="http://www.w3.org/2000/svg">
<path d="M101 51C101 78.6142 78.6142 101 51 101C23.3858 101 1 78.6142 1 51C1 23.3858 23.3858 1 51 1C78.6142 1 101 23.3858 101 51Z" fill="#D9D9D9"/>
<path d="M50.8433 41.0368C56.6551 48.8413 62.1349 50.7605 74.3666 51.4659M50.7312 61.234C56.4619 54.6163 61.9797 52.7533 74.3717 51.4743M74.1061 51.4533L28.7757 52.1229M101 51C101 78.6142 78.6142 101 51 101C23.3858 101 1 78.6142 1 51C1 23.3858 23.3858 1 51 1C78.6142 1 101 23.3858 101 51Z" stroke="#303030"/>
</svg>
