<svg width="80" height="80" viewBox="0 0 80 80" fill="none" xmlns="http://www.w3.org/2000/svg">
<circle cx="40" cy="40" r="40" fill="#FFD3D3"/>
<path d="M21.4764 60.7656C20.4519 60.5999 19.4983 60.5734 18.6139 60.2884C15.8448 59.4003 14.055 56.731 14.0324 53.4602C13.9962 48.2491 13.9827 43.0381 14.0324 37.8287C14.0776 33.6996 16.8633 30.732 20.6297 30.7072C23.9442 30.6856 27.2466 30.7072 30.5536 30.7072H31.2933V29.9168C31.2933 26.0711 31.2827 22.2253 31.2933 18.3779C31.3069 15.0325 32.9505 12.4129 35.697 11.4022C36.3771 11.1545 37.0884 11.0259 37.8047 11.0211C45.3577 10.9968 52.9122 10.9935 60.4682 11.0112C64.0916 11.0112 66.9315 14.0715 66.9676 18.0598C67.0128 23.331 67.0128 28.6034 66.9676 33.8769C66.9345 37.8535 64.1292 40.8642 60.53 40.9288C60.2151 40.9288 59.9002 40.9288 59.5206 40.9288C59.5206 41.9694 59.5206 42.937 59.5206 43.9113C59.5206 44.6552 59.5372 45.4025 59.4799 46.1415C59.3744 47.4803 58.7161 48.4198 57.5861 48.9003C56.4562 49.3808 55.3911 49.1505 54.4946 48.2508C53.08 46.8275 51.6924 45.371 50.2928 43.9295C50.1421 43.7771 49.9915 43.6263 49.7459 43.3794C49.7293 43.6909 49.7097 43.8997 49.7097 44.1085C49.7097 47.1904 49.7203 50.2706 49.7097 53.3525C49.6917 56.8718 47.7241 59.6489 44.6868 60.4342C44.1743 60.5628 43.6502 60.6273 43.1245 60.6264C40.1113 60.643 37.1102 60.6264 34.1031 60.6513C33.7968 60.6643 33.5038 60.7924 33.2729 61.0142C31.0658 63.261 28.8858 65.5409 26.6862 67.796C25.5351 68.9757 24.1446 69.1646 22.9197 68.3345C21.9163 67.6552 21.4915 66.6229 21.487 65.352C21.487 64.0265 21.487 62.7009 21.487 61.3754L21.4764 60.7656ZM56.2694 45.1722V44.3901C56.2694 42.715 56.2694 41.0415 56.2694 39.3663C56.2694 38.0623 56.8856 37.378 58.0773 37.3548C58.8487 37.3382 59.6185 37.3548 60.3899 37.3548C62.3786 37.325 63.7179 35.8635 63.7224 33.683C63.7315 28.5565 63.7315 23.4288 63.7224 18.3C63.7224 16.083 62.3665 14.6017 60.3628 14.6001C52.8811 14.6001 45.3984 14.6001 37.9147 14.6001C37.6333 14.5921 37.3519 14.6176 37.0756 14.6763C35.5072 15.0607 34.543 16.4559 34.543 18.3514C34.543 23.3752 34.5465 28.4013 34.5535 33.4295C34.5535 35.953 35.8115 37.3564 38.094 37.3598C41.2895 37.3598 44.4849 37.3598 47.6804 37.3598C47.9987 37.3484 48.3157 37.4087 48.6121 37.5369C48.9085 37.6651 49.1779 37.8586 49.4039 38.1054C51.3625 40.1567 53.3451 42.1864 55.3187 44.2228C55.5959 44.4912 55.8717 44.7679 56.2694 45.1722ZM46.4555 40.9305H45.7595C43.1486 40.9305 40.5362 40.9437 37.9253 40.9305C34.4481 40.9106 31.8839 38.4699 31.3716 34.6954C31.3295 34.3756 31.221 34.2779 30.9468 34.2795C27.3958 34.2878 23.8433 34.2513 20.2922 34.3126C18.5928 34.3408 17.2987 35.8569 17.2896 37.7491C17.2655 43.0215 17.2655 48.2928 17.2896 53.5629C17.3002 55.5513 18.7103 57.0226 20.5077 57.0425C21.2971 57.0425 22.0866 57.0425 22.876 57.0425C24.0918 57.0508 24.7246 57.7351 24.7291 59.0573C24.7291 60.7524 24.7291 62.4491 24.7291 64.1441V64.8682C24.9792 64.623 25.1329 64.4821 25.2775 64.333C27.3596 62.179 29.4523 60.0432 31.5163 57.871C31.7654 57.5914 32.0647 57.3721 32.3952 57.2269C32.7256 57.0817 33.08 57.0138 33.4357 57.0276C36.5995 57.0557 39.7497 57.0392 42.9075 57.0392C45.1674 57.0392 46.4615 55.6159 46.4631 53.1106C46.4631 49.3063 46.4631 45.5025 46.4631 41.6993L46.4555 40.9305Z" fill="white"/>
<path d="M24.3811 25.8706C23.8553 25.8706 23.3265 25.8888 22.8052 25.8706C21.847 25.8291 21.1224 25.052 21.1224 24.0894C21.1224 23.0687 21.8365 22.3065 22.8354 22.2932C23.8659 22.2778 24.8974 22.2778 25.9299 22.2932C26.9076 22.3065 27.6097 23.0355 27.6353 24.028C27.6609 25.0206 26.9483 25.8275 25.9555 25.8672C25.4312 25.8888 24.9069 25.8706 24.3811 25.8706Z" fill="white"/>
<path d="M56.9052 58.0681C56.3613 58.0681 55.8144 58.088 55.2705 58.0681C54.353 58.0267 53.7007 57.2993 53.6856 56.3366C53.6705 55.374 54.2882 54.5786 55.1922 54.5389C56.3372 54.4908 57.4852 54.4908 58.6302 54.5389C58.8381 54.5413 59.0434 54.5897 59.2339 54.6812C59.4245 54.7727 59.5963 54.9054 59.7393 55.0714C59.8822 55.2375 59.9934 55.4334 60.066 55.6476C60.1387 55.8619 60.1715 56.09 60.1624 56.3184C60.1616 56.7766 59.9967 57.2159 59.7034 57.5413C59.4101 57.8666 59.0121 58.0517 58.5955 58.0565C58.0336 58.0897 57.4701 58.0665 56.9052 58.0681Z" fill="white"/>
<path d="M49.1041 24.0612C46.9647 24.0612 44.8239 24.0761 42.683 24.0612C41.5712 24.0463 40.848 23.0952 41.0454 21.9353C41.1019 21.5865 41.2552 21.2655 41.4842 21.0163C41.7132 20.7671 42.0067 20.602 42.3245 20.5435C42.5282 20.5073 42.7343 20.4901 42.9407 20.4921C47.0717 20.4921 51.2023 20.4921 55.3323 20.4921C56.3221 20.4921 56.9248 20.8931 57.1779 21.6901C57.5545 22.8814 56.7967 24.0446 55.5899 24.0579C53.4295 24.0778 51.2706 24.0612 49.1041 24.0612Z" fill="white"/>
<path d="M49.1282 31.2307C46.9678 31.2307 44.8088 31.2307 42.6499 31.2307C42.2993 31.2362 41.9566 31.1164 41.6733 30.8893C41.3899 30.6622 41.1812 30.3401 41.0785 29.9715C40.8751 29.2043 41.1222 28.3642 41.7444 27.9716C42.0516 27.7771 42.398 27.67 42.7523 27.6601C47.016 27.6402 51.2796 27.6402 55.5432 27.6601C56.5481 27.6601 57.2758 28.4454 57.2788 29.4479C57.2788 30.4785 56.5361 31.2374 55.4965 31.2407C53.3722 31.2385 51.2495 31.2352 49.1282 31.2307Z" fill="white"/>
<path d="M27.6429 45.5284C27.6372 45.9977 27.4653 46.4459 27.1637 46.7778C26.8621 47.1098 26.4546 47.2991 26.0279 47.3056C25.6013 47.3121 25.1892 47.1352 24.8794 46.8125C24.5696 46.4899 24.3865 46.047 24.3691 45.5782C24.3747 45.1089 24.5466 44.6607 24.8482 44.3288C25.1498 43.9968 25.5573 43.8075 25.984 43.801C26.4106 43.7945 26.8227 43.9714 27.1325 44.2941C27.4423 44.6167 27.6254 45.0596 27.6429 45.5284Z" fill="white"/>
<path d="M32.5061 47.3478C32.2894 47.3454 32.0753 47.2949 31.8767 47.1993C31.6782 47.1038 31.4992 46.9652 31.3505 46.7917C31.2018 46.6183 31.0865 46.4136 31.0114 46.19C30.9363 45.9664 30.9031 45.7284 30.9136 45.4903C30.9158 45.2565 30.9609 45.0256 31.0462 44.8115C31.1315 44.5973 31.2552 44.4043 31.4099 44.244C31.5647 44.0837 31.7473 43.9594 31.9468 43.8786C32.1463 43.7978 32.3585 43.7621 32.5709 43.7738C32.9981 43.7908 33.4027 43.9888 33.7003 44.3263C33.9979 44.6638 34.1654 45.1147 34.1679 45.5848C34.1437 46.516 33.3438 47.3676 32.5061 47.3478Z" fill="white"/>
<path d="M40.6236 45.5483C40.6281 45.7813 40.5907 46.0129 40.5133 46.2299C40.4359 46.4468 40.3201 46.6446 40.1727 46.812C40.0253 46.9794 39.8492 47.1129 39.6545 47.2049C39.4598 47.2968 39.2505 47.3454 39.0386 47.3478C38.1964 47.3676 37.401 46.5193 37.3814 45.5914C37.3814 45.108 37.556 44.6444 37.8668 44.3026C38.1776 43.9608 38.5991 43.7688 39.0386 43.7688C39.2502 43.7662 39.4601 43.8107 39.6556 43.8997C39.8512 43.9887 40.0283 44.1203 40.1764 44.2866C40.3245 44.4528 40.4404 44.6503 40.5173 44.8672C40.5941 45.084 40.6303 45.3157 40.6236 45.5483Z" fill="white"/>
</svg>
