<svg width="40" height="40" viewBox="0 0 40 40" fill="none" xmlns="http://www.w3.org/2000/svg">
<circle cx="20" cy="20" r="20" fill="#F0F0F0"/>
<path d="M11.4394 12.5607C10.8536 11.9749 10.8536 11.0251 11.4394 10.4393C12.0252 9.85356 12.9749 9.85356 13.5607 10.4393L29.1171 25.9957C29.7029 26.5815 29.7029 27.5312 29.1171 28.117C28.5313 28.7028 27.5815 28.7028 26.9957 28.117L11.4394 12.5607Z" fill="#303030"/>
<path d="M26.9957 10.4393C27.5815 9.85355 28.5312 9.85355 29.117 10.4393C29.7028 11.0251 29.7028 11.9749 29.117 12.5607L13.5607 28.117C12.9749 28.7028 12.0251 28.7028 11.4393 28.117C10.8536 27.5312 10.8536 26.5815 11.4393 25.9957L26.9957 10.4393Z" fill="#303030"/>
</svg>
