<svg width="20" height="20" viewBox="0 0 20 20" fill="none" xmlns="http://www.w3.org/2000/svg">
<path d="M12.7778 14.4444C12.7778 14.5918 12.7192 14.7331 12.6151 14.8373C12.5109 14.9415 12.3696 15 12.2222 15H4.44444C4.32222 15 4.20555 15.1111 4.10555 15.1833L2.22222 16.6667V7.77778C2.22222 7.63044 2.28075 7.48913 2.38494 7.38494C2.48913 7.28075 2.63043 7.22222 2.77778 7.22222H4.92222V6.11111H2.77778C2.33575 6.11111 1.91182 6.28671 1.59926 6.59927C1.2867 6.91183 1.11111 7.33575 1.11111 7.77778V17.7778C1.11194 17.881 1.14148 17.9819 1.19643 18.0692C1.25138 18.1565 1.32956 18.2268 1.42222 18.2722C1.51149 18.3128 1.60991 18.3291 1.70748 18.3193C1.80506 18.3095 1.89832 18.2741 1.97777 18.2167L4.83889 16.1111H12.3056C12.5161 16.1173 12.7257 16.0803 12.9214 16.0022C13.117 15.9241 13.2945 15.8067 13.443 15.6572C13.5914 15.5078 13.7076 15.3294 13.7843 15.1332C13.861 14.937 13.8966 14.7272 13.8889 14.5167V13.8889H12.7778V14.4444Z" fill="white"/>
<path d="M17.7778 7.34445V12.7444L15.8333 11.2278C15.7364 11.1525 15.6172 11.1115 15.4944 11.1111H7.77777C7.63043 11.1111 7.48913 11.0526 7.38494 10.9484C7.28075 10.8442 7.22222 10.7029 7.22222 10.5556V3.88889C7.22222 3.74155 7.28075 3.60024 7.38494 3.49605C7.48913 3.39187 7.63043 3.33333 7.77777 3.33333H12.5C12.5015 2.95764 12.5538 2.58387 12.6556 2.22222H7.77777C7.33575 2.22222 6.91182 2.39782 6.59926 2.71038C6.2867 3.02294 6.11111 3.44686 6.11111 3.88889V10.5556C6.11111 10.9976 6.2867 11.4215 6.59926 11.7341C6.91182 12.0466 7.33575 12.2222 7.77777 12.2222H15.3056L17.9611 14.2833C18.0401 14.3417 18.1331 14.3781 18.2306 14.3888C18.3282 14.3996 18.4269 14.3843 18.5167 14.3444C18.6112 14.2994 18.6911 14.2286 18.7471 14.1401C18.8031 14.0517 18.833 13.9492 18.8333 13.8444V6.87222C18.5053 7.07825 18.15 7.23721 17.7778 7.34445Z" fill="white"/>
<path d="M16.6667 6.11111C18.2008 6.11111 19.4444 4.86746 19.4444 3.33333C19.4444 1.79921 18.2008 0.555556 16.6667 0.555556C15.1325 0.555556 13.8889 1.79921 13.8889 3.33333C13.8889 4.86746 15.1325 6.11111 16.6667 6.11111Z" fill="white"/>
</svg>
