<svg width="244" height="384" viewBox="0 0 244 384" fill="none" xmlns="http://www.w3.org/2000/svg">
<path fill-rule="evenodd" clip-rule="evenodd" d="M396.657 157.863L396.791 160.413L396.893 162.965L396.961 165.52L396.997 168.078L397 170.636L396.971 173.196L396.909 175.757L396.814 178.318L396.688 180.879L396.529 183.439L396.337 185.998L396.114 188.556L395.858 191.111L395.57 193.665L395.249 196.215L394.896 198.763L394.511 201.306L394.093 203.846L393.642 206.38L393.159 208.91L392.643 211.433L392.094 213.951L391.513 216.462L390.899 218.966L390.252 221.462L389.573 223.95L388.86 226.43L388.115 228.9L387.337 231.361L386.527 233.811L385.683 236.251L384.808 238.679L383.899 241.096L382.959 243.5L381.986 245.892L380.981 248.271L379.944 250.636L378.876 252.986L377.776 255.323L376.646 257.644L375.484 259.949L374.292 262.239L373.07 264.512L371.818 266.769L370.537 269.009L369.226 271.231L367.888 273.436L366.521 275.623L365.126 277.792L363.705 279.942L362.257 282.074L360.783 284.188L359.284 286.282L357.76 288.358L356.212 290.414L354.64 292.452L353.044 294.47L351.427 296.469L349.787 298.449L348.125 300.409L346.442 302.35L344.738 304.272L343.014 306.175L341.27 308.058L339.507 309.922L337.724 311.766L335.923 313.591L334.104 315.397L332.266 317.183L330.411 318.95L328.539 320.698L326.649 322.426L324.743 324.135L322.821 325.825L320.882 327.495L318.927 329.146L316.956 330.777L314.97 332.389L312.969 333.981L310.952 335.554L308.921 337.107L306.875 338.64L304.814 340.154L302.739 341.648L300.649 343.122L298.546 344.575L296.428 346.009L294.296 347.422L292.151 348.815L289.992 350.187L287.819 351.539L285.633 352.869L283.433 354.178L281.22 355.465L278.994 356.731L276.754 357.974L274.502 359.195L272.236 360.392L269.957 361.566L267.665 362.716L265.36 363.842L263.042 364.943L260.711 366.018L258.368 367.068L256.013 368.091L253.645 369.087L251.265 370.056L248.873 370.996L246.469 371.909L244.053 372.792L241.627 373.646L239.189 374.469L236.741 375.262L234.282 376.024L231.813 376.754L229.335 377.451L226.847 378.116L224.35 378.748L221.844 379.346L219.33 379.91L216.809 380.44L214.28 380.934L211.745 381.393L209.204 381.816L206.656 382.202L204.104 382.552L201.547 382.865L198.986 383.141L196.421 383.379L193.854 383.579L191.284 383.741L188.713 383.864L186.141 383.948L183.568 383.994L180.996 384L178.424 383.967L175.855 383.894L173.287 383.781L170.723 383.628L168.162 383.435L165.606 383.202L163.055 382.928L160.51 382.614L157.971 382.26L155.44 381.864L152.916 381.428L150.402 380.952L147.897 380.434L145.403 379.876L142.92 379.277L140.448 378.639L137.989 377.959L135.544 377.24L133.112 376.482L130.696 375.683L128.294 374.846L125.909 373.97L123.541 373.055L121.19 372.102L118.858 371.112L116.544 370.084L114.25 369.02L111.976 367.92L109.723 366.784L107.491 365.614L105.281 364.409L103.093 363.17L100.929 361.898L98.787 360.593L96.6693 359.257L94.5758 357.89L92.507 356.492L90.4632 355.065L88.4447 353.609L86.452 352.125L84.4853 350.614L82.5449 349.076L80.6311 347.513L78.7439 345.925L76.8837 344.313L75.0506 342.677L73.2447 341.02L71.4661 339.34L69.715 337.641L67.9913 335.921L66.2951 334.182L64.6265 332.424L62.9855 330.649L61.372 328.858L59.786 327.05L58.2275 325.227L56.6963 323.389L55.1924 321.538L53.7157 319.673L52.2659 317.796L50.8431 315.907L49.4469 314.007L48.0772 312.097L46.7339 310.177L45.4166 308.248L44.1251 306.31L42.8593 304.365L41.6187 302.412L40.4032 300.453L39.2124 298.487L38.046 296.516L36.9036 294.539L35.785 292.559L34.6898 290.574L33.6175 288.585L32.568 286.594L31.5406 284.6L30.5351 282.604L29.551 280.606L28.588 278.606L27.6456 276.606L26.7234 274.604L25.821 272.603L24.9379 270.601L24.0738 268.6L23.2282 266.599L22.4007 264.599L21.5909 262.6L20.7984 260.602L20.0228 258.605L19.2637 256.61L18.5208 254.616L17.7936 252.624L17.0819 250.633L16.3854 248.645L15.7037 246.658L15.0366 244.673L14.3839 242.69L13.7453 240.709L13.1206 238.729L12.5097 236.751L11.9126 234.774L11.329 232.799L10.7588 230.825L10.2021 228.853L9.65874 226.882L9.12868 224.911L8.61191 222.942L8.10844 220.973L7.61829 219.005L7.14149 217.038L6.67813 215.071L6.22827 213.104L5.79202 211.138L5.36952 209.171L4.96089 207.205L4.56632 205.238L4.18598 203.271L3.82009 201.303L3.46886 199.336L3.13254 197.367L2.8114 195.398L2.50571 193.428L2.21578 191.458L1.94191 189.486L1.68443 187.514L1.4437 185.541L1.22006 183.567L1.01388 181.592L0.825548 179.617L0.655449 177.641L0.503982 175.664L0.371551 173.687L0.258567 171.709L0.165446 169.73L0.0926049 167.752L0.040463 165.774L0.00944667 163.795L0 161.817L0.012584 159.84L0.0476741 157.863L0.105757 155.888L0.18733 153.913L0.292893 151.941L0.422951 149.97L0.578009 148.002L0.758567 146.037L0.965121 144.074L1.19816 142.115L1.45814 140.161L1.74554 138.21L2.0608 136.265L2.40432 134.325L2.7765 132.392L3.17772 130.465L3.60831 128.545L4.06858 126.633L4.5588 124.729L5.07921 122.834L5.63001 120.949L6.21138 119.074L6.82341 117.21L7.4662 115.357L8.13979 113.517L8.84416 111.69L9.57926 109.875L10.345 108.075L11.1412 106.29L11.9678 104.52L12.8244 102.766L13.7108 101.028L14.6267 99.3074L15.5717 97.6044L16.5454 95.9196L17.5475 94.2535L18.5773 92.6065L19.6344 90.9791L20.7182 89.3718L21.8282 87.785L22.9637 86.2191L24.1242 84.6744L25.3089 83.1512L26.5171 81.6499L27.7483 80.1707L29.0015 78.7138L30.2762 77.2796L31.5716 75.8681L32.8869 74.4795L34.2215 73.114L35.5745 71.7716L36.9452 70.4525L38.3329 69.1567L39.7368 67.8842L41.1563 66.6351L42.5905 65.4094L44.0387 64.2069L45.5001 63.0276L46.9739 61.8713L48.4593 60.7377L49.9554 59.6267L51.4615 58.5379L52.9767 57.4711L54.5001 56.4258L56.031 55.4017L57.5686 54.3983L59.1121 53.4151L60.6607 52.4516L62.2135 51.5073L63.77 50.5815L65.3294 49.6737L66.8909 48.7832L68.454 47.9094L70.0179 47.0515L71.5821 46.2089L73.1461 45.3808L74.7093 44.5666L76.2711 43.7654L77.8312 42.9766L79.3892 42.1993L80.9446 41.4328L82.4972 40.6764L84.0467 39.9293L85.5928 39.1908L87.1353 38.4601L88.6742 37.7366L90.2092 37.0195L91.7404 36.3082L93.2678 35.602L94.7913 34.9003L96.311 34.2025L97.8271 33.5081L99.3397 32.8165L100.849 32.1272L102.355 31.4399L103.859 30.7541L105.359 30.0694L106.858 29.3856L108.355 28.7023L109.85 28.0195L111.345 27.3368L112.838 26.6542L114.332 25.9716L115.825 25.2891L117.32 24.6066L118.816 23.9242L120.313 23.2421L121.813 22.5604L123.315 21.8795L124.821 21.1995L126.33 20.5208L127.844 19.8438L129.362 19.1688L130.885 18.4964L132.414 17.827L133.949 17.1611L135.49 16.4992L137.038 15.8421L138.593 15.1901L140.156 14.5441L141.727 13.9046L143.305 13.2723L144.892 12.6478L146.488 12.0318L148.093 11.4251L149.707 10.8283L151.329 10.2421L152.962 9.66713L154.603 9.10412L156.255 8.55371L157.916 8.01653L159.586 7.49323L161.266 6.98439L162.955 6.49059L164.654 6.01239L166.362 5.5503L168.08 5.10481L169.807 4.67637L171.543 4.2654L173.287 3.87226L175.041 3.4973L176.803 3.1408L178.573 2.80301L180.351 2.48414L182.138 2.18434L183.932 1.90373L185.734 1.64238L187.544 1.40037L189.36 1.17773L191.184 0.974473L193.015 0.790604L194.853 0.6261L196.697 0.480926L198.548 0.355028L200.405 0.248342L202.268 0.160787L204.137 0.0922769L206.012 0.0427128L207.894 0.0119903L209.781 0L211.673 0.00662907L213.572 0.0317634L215.476 0.0752896L217.385 0.137097L219.3 0.217078L221.221 0.315133L223.147 0.43117L225.078 0.565105L227.015 0.716868L228.957 0.886402L230.905 1.07366L232.858 1.27862L234.816 1.50127L236.78 1.74162L238.749 1.99969L240.724 2.27554L242.704 2.56924L244.689 2.88088L246.679 3.21058L248.675 3.55847L250.676 3.92473L252.682 4.30954L254.693 4.7131L256.709 5.13564L258.73 5.57739L260.756 6.0386L262.786 6.51953L264.82 7.02046L266.859 7.54168L268.902 8.08349L270.949 8.6462L273 9.23015L275.054 9.83568L277.111 10.4632L279.171 11.1129L281.233 11.7854L283.298 12.4809L285.365 13.1999L287.433 13.9427L289.502 14.7099L291.571 15.5017L293.641 16.3186L295.71 17.1611L297.779 18.0295L299.846 18.9243L301.91 19.8459L303.972 20.7947L306.031 21.7712L308.086 22.7756L310.135 23.8084L312.18 24.8701L314.218 25.9608L316.249 27.0811L318.272 28.2312L320.287 29.4114L322.292 30.6221L324.286 31.8634L326.27 33.1357L328.241 34.4391L330.199 35.7739L332.143 37.1402L334.073 38.5381L335.987 39.9678L337.883 41.4293L339.763 42.9226L341.623 44.4477L343.464 46.0047L345.285 47.5934L347.084 49.2137L348.861 50.8655L350.614 52.5487L352.344 54.2629L354.049 56.008L355.728 57.7836L357.38 59.5895L359.006 61.4252L360.603 63.2905L362.171 65.1848L363.71 67.1078L365.219 69.0589L366.697 71.0377L368.143 73.0437L369.558 75.0762L370.94 77.1348L372.289 79.2188L373.604 81.3276L374.885 83.4607L376.132 85.6174L377.344 87.797L378.52 89.9989L379.661 92.2224L380.766 94.4669L381.835 96.7315L382.867 99.0156L383.863 101.319L384.822 103.64L385.744 105.978L386.628 108.333L387.476 110.704L388.286 113.09L389.06 115.491L389.796 117.905L390.495 120.332L391.157 122.772L391.782 125.224L392.371 127.686L392.923 130.159L393.439 132.641L393.918 135.133L394.362 137.633L394.77 140.14L395.143 142.655L395.481 145.177L395.784 147.704L396.053 150.237L396.288 152.775L396.489 155.317L396.657 157.863Z" fill="#BDE0E0"/>
</svg>
