<svg width="80" height="80" viewBox="0 0 80 80" fill="none" xmlns="http://www.w3.org/2000/svg">
<circle cx="40" cy="40" r="40" fill="#FFD3D3"/>
<path d="M66 32.1394V34.418C65.9662 34.5643 65.9393 34.7124 65.9193 34.8617C65.7075 37.9679 64.8017 40.8233 63.4582 43.53C61.6325 47.2064 59.2076 50.3901 56.5649 53.372C51.7697 58.7878 46.5751 63.7309 41.3906 68.6808C40.041 69.9698 38.9334 69.9742 37.5838 68.6652C33.416 64.6251 29.2422 60.5938 25.1046 56.5159C22.2098 53.6627 19.4924 50.6164 17.2209 47.1243C14.7254 43.2904 13.2024 39.0772 13.0168 34.3204C12.8271 29.1686 14.2393 24.6492 17.5901 21.0084C22.4902 15.6836 30.0975 14.5299 36.1495 18.1086C37.3135 18.7942 38.4009 19.6373 39.579 20.4404C39.6839 20.3539 39.8594 20.2053 40.0389 20.061C45.5241 15.6215 51.4006 14.6875 57.5837 18.0154C61.6022 20.1653 64.1723 23.7951 65.3787 28.5341C65.6813 29.6989 65.8003 30.9325 66 32.1394ZM49.1109 44.6261V37.5397H42.6917V30.4976H36.2746V37.5663H29.8877V44.6394H36.2907V51.6548H42.7159V44.6261H49.1109Z" fill="white"/>
</svg>
