<svg width="20" height="20" viewBox="0 0 20 20" fill="none" xmlns="http://www.w3.org/2000/svg">
<path d="M5 6.36364C5.75312 6.36364 6.36364 5.75312 6.36364 5C6.36364 4.24688 5.75312 3.63636 5 3.63636C4.24688 3.63636 3.63636 4.24688 3.63636 5C3.63636 5.75312 4.24688 6.36364 5 6.36364Z" fill="white"/>
<path d="M3.63636 8.18182C3.63636 7.67975 4.04338 7.27273 4.54545 7.27273H5.45455C5.95662 7.27273 6.36364 7.67974 6.36364 8.18182V15.4545C6.36364 15.9566 5.95662 16.3636 5.45455 16.3636H4.54545C4.04338 16.3636 3.63636 15.9566 3.63636 15.4545V8.18182Z" fill="white"/>
<path d="M9.09091 16.3636H10C10.5021 16.3636 10.9091 15.9566 10.9091 15.4545V11.3636C10.9091 10 13.6364 9.09091 13.6364 10.9091V15.4549C13.6364 15.957 14.0434 16.3636 14.5455 16.3636H15.4545C15.9566 16.3636 16.3636 15.9566 16.3636 15.4545V10C16.3636 8.18182 15 7.27273 13.1818 7.27273C11.3636 7.27273 10.9091 8.63636 10.9091 8.63636V8.18182C10.9091 7.67974 10.5021 7.27273 10 7.27273H9.09091C8.58882 7.27273 8.18182 7.67975 8.18182 8.18182V15.4545C8.18182 15.9566 8.58882 16.3636 9.09091 16.3636Z" fill="white"/>
<path fill-rule="evenodd" clip-rule="evenodd" d="M17.2727 0C18.779 0 20 1.22105 20 2.72727V17.2727C20 18.779 18.779 20 17.2727 20H2.72727C1.22105 20 0 18.779 0 17.2727V2.72727C0 1.22105 1.22105 0 2.72727 0H17.2727ZM17.2727 1.81818C17.7748 1.81818 18.1818 2.2252 18.1818 2.72727V17.2727C18.1818 17.7748 17.7748 18.1818 17.2727 18.1818H2.72727C2.2252 18.1818 1.81818 17.7748 1.81818 17.2727V2.72727C1.81818 2.2252 2.2252 1.81818 2.72727 1.81818H17.2727Z" fill="white"/>
</svg>
