<svg width="20" height="21" viewBox="0 0 20 21" fill="none" xmlns="http://www.w3.org/2000/svg">
<path d="M18.6749 6.72064C19.9908 6.61668 19.9908 6.61668 19.9908 7.91282C19.9908 9.53135 19.9763 11.1499 20 12.7671C20 13.2013 19.8921 13.3671 19.4381 13.425C15.8997 13.8356 13.768 16.0568 13.5588 19.5728C13.5351 19.9886 13.3667 20.0149 13.0403 20.0136C11.1165 20.0031 9.19008 19.982 7.26627 20.0241C6.66491 20.0373 6.52674 19.8728 6.59912 19.2978C6.85045 17.2858 7.36364 15.358 8.30976 13.5553C8.34576 13.477 8.37696 13.3966 8.40318 13.3145C8.59662 12.5 9.12823 11.8789 9.64537 11.2709C11.4363 9.16553 13.7035 7.79702 16.3734 7.07461C17.1248 6.86407 17.9104 6.87986 18.6749 6.72064Z" fill="white"/>
<path d="M1.31588 13.279C0 13.3513 0 13.3513 0 12.0605C0 10.4419 0.00789526 8.8234 0 7.20488C0 6.82459 0.0434239 6.63247 0.511876 6.59431C3.77656 6.33114 6.00566 4.15862 6.32673 0.8992C6.39779 0.187311 6.5978 -0.0219132 7.3268 0.00177256C9.10718 0.0636187 10.9033 0.0346695 12.6969 0.0136154C13.1706 0.0136154 13.3798 0.0544076 13.3206 0.638657C13.1388 2.51181 12.6353 4.33959 11.8324 6.04164C11.7323 6.25218 11.5521 6.43641 11.5889 6.69958C10.9507 8.21021 9.88223 9.39186 8.63478 10.4025C6.56276 12.1146 3.99918 13.1222 1.31588 13.279Z" fill="white"/>
<path d="M1.31588 13.279C2.27647 13.0237 3.26206 12.8842 4.2108 12.5802C7.28469 11.5933 9.69801 9.78926 11.3192 6.97328C11.3991 6.87409 11.4916 6.78563 11.5942 6.71011L18.6723 6.72721C17.8393 7.04171 16.9472 7.08908 16.0945 7.33778C12.8245 8.29311 10.2941 10.1801 8.56109 13.1276C8.51162 13.1977 8.45567 13.2629 8.39397 13.3224L1.31588 13.279Z" fill="white"/>
</svg>
