<svg width="40" height="40" viewBox="0 0 40 40" fill="none" xmlns="http://www.w3.org/2000/svg">
<path d="M40 20C40 31.0457 31.0457 40 20 40C8.9543 40 0 31.0457 0 20C0 8.9543 8.9543 0 20 0C31.0457 0 40 8.9543 40 20Z" fill="#F0F0F0"/>
<path d="M20.0157 11.0002C22.8244 11.0002 25.6321 11.0002 28.4388 11.0002C29.2311 11.0002 29.7805 11.4413 29.9579 12.2037C30.005 12.4124 30.0122 12.6296 29.9792 12.8416C29.9461 13.0535 29.8736 13.2557 29.766 13.4353C29.6585 13.6148 29.5183 13.768 29.3542 13.8851C29.1902 14.0021 29.0059 14.0806 28.813 14.1155C28.6753 14.1383 28.5362 14.1492 28.397 14.1482C22.7991 14.1482 17.2011 14.1482 11.6031 14.1482C10.7735 14.1482 10.2107 13.7072 10.0377 12.9292C9.99344 12.7224 9.98808 12.5078 10.022 12.2987C10.0559 12.0895 10.1283 11.8902 10.2349 11.7129C10.3414 11.5357 10.4798 11.3843 10.6415 11.2681C10.8032 11.1519 10.9849 11.0733 11.1752 11.0371C11.3408 11.0105 11.5081 10.9981 11.6754 11.0002C14.4558 11.0002 17.2359 11.0002 20.0157 11.0002Z" fill="#303030"/>
<path d="M20.012 18.8571C22.8197 18.8571 25.6274 18.8571 28.4351 18.8571C29.2297 18.8571 29.7768 19.2949 29.9572 20.0565C30.0049 20.2653 30.0129 20.4827 29.9804 20.695C29.9479 20.9073 29.8758 21.1099 29.7686 21.29C29.6613 21.4701 29.5213 21.6238 29.3574 21.7413C29.1934 21.8589 29.0091 21.9379 28.816 21.9732C28.6875 21.9952 28.5576 22.0062 28.4276 22.006C22.8122 22.006 17.1969 22.006 11.5815 22.006C10.7787 22.0068 10.2315 21.5756 10.0474 20.8214C9.99757 20.6108 9.98835 20.3912 10.0204 20.1765C10.0524 19.9618 10.125 19.7569 10.2334 19.5749C10.3418 19.393 10.4837 19.238 10.6499 19.12C10.8161 19.0021 11.0029 18.9237 11.1983 18.8899C11.3549 18.8662 11.5129 18.8555 11.6709 18.858C14.4513 18.8563 17.2316 18.856 20.012 18.8571Z" fill="#303030"/>
<path d="M24.2697 29.8637C22.884 29.8637 21.4976 29.8637 20.1119 29.8637C19.2681 29.8637 18.6785 29.3103 18.5838 28.4537C18.545 28.0634 18.6416 27.6715 18.8543 27.3562C19.067 27.041 19.3801 26.8257 19.731 26.7534C19.8687 26.7281 20.0081 26.7155 20.1477 26.7157C22.9101 26.7157 25.6728 26.7157 28.4358 26.7157C29.4004 26.7157 30.0407 27.4142 29.9952 28.4012C29.9747 28.7456 29.8505 29.0727 29.642 29.3308C29.4336 29.5888 29.1529 29.7631 28.8443 29.826C28.6882 29.8525 28.5304 29.8651 28.3724 29.8637C27.0059 29.8653 25.6383 29.8653 24.2697 29.8637Z" fill="#303030"/>
</svg>
