<svg width="248" height="512" viewBox="0 0 248 512" fill="none" xmlns="http://www.w3.org/2000/svg">
<path fill-rule="evenodd" clip-rule="evenodd" d="M246.865 210.426L247.045 213.825L247.18 217.227L247.271 220.633L247.319 224.042L247.323 227.453L247.284 230.865L247.201 234.278L247.075 237.692L246.906 241.105L246.694 244.518L246.438 247.929L246.14 251.339L245.798 254.745L245.413 258.149L244.984 261.549L244.513 264.944L243.998 268.335L243.44 271.719L242.838 275.098L242.192 278.47L241.503 281.834L240.77 285.19L239.994 288.537L239.174 291.874L238.31 295.202L237.402 298.518L236.45 301.823L235.455 305.116L234.416 308.396L233.333 311.662L232.206 314.914L231.036 318.152L229.823 321.373L228.566 324.578L227.267 327.766L225.925 330.937L224.54 334.089L223.113 337.223L221.644 340.337L220.133 343.431L218.582 346.504L216.99 349.556L215.357 352.586L213.685 355.595L211.973 358.58L210.223 361.543L208.434 364.482L206.608 367.397L204.746 370.288L202.847 373.154L200.913 375.996L198.944 378.813L196.941 381.605L194.905 384.371L192.837 387.112L190.737 389.828L188.606 392.519L186.445 395.183L184.254 397.822L182.034 400.436L179.786 403.023L177.51 405.585L175.207 408.121L172.878 410.631L170.522 413.116L168.141 415.574L165.735 418.007L163.305 420.414L160.85 422.795L158.372 425.15L155.871 427.48L153.347 429.784L150.801 432.061L148.232 434.314L145.642 436.54L143.031 438.74L140.399 440.915L137.746 443.063L135.072 445.186L132.379 447.282L129.665 449.352L126.932 451.396L124.179 453.414L121.407 455.405L118.615 457.37L115.805 459.307L112.976 461.218L110.129 463.102L107.263 464.959L104.379 466.788L101.476 468.589L98.5561 470.363L95.6178 472.108L92.6616 473.824L89.6877 475.511L86.696 477.168L83.6867 478.795L80.6598 480.391L77.6154 481.956L74.5537 483.489L71.4747 484.989L68.3785 486.456L65.2654 487.89L62.1353 489.289L58.9886 490.653L55.8255 491.981L52.6461 493.272L49.4508 494.526L46.2397 495.742L43.0132 496.919L39.7717 498.057L36.5154 499.155L33.2448 500.212L29.9603 501.227L26.6623 502.2L23.3513 503.13L20.0277 504.017L16.6922 504.859L13.3452 505.656L9.9874 506.408L6.61929 507.113L3.24155 507.772L-0.145203 508.384L-3.54025 508.948L-6.9429 509.463L-10.3525 509.93L-13.7682 510.347L-17.1893 510.714L-20.6151 511.032L-24.0447 511.298L-27.4773 511.514L-30.9121 511.678L-34.3482 511.791L-37.7848 511.851L-41.221 511.859L-44.6559 511.815L-48.0886 511.718L-51.5182 511.567L-54.9438 511.364L-58.3645 511.107L-61.7792 510.796L-65.187 510.431L-68.587 510.012L-71.9781 509.54L-75.3595 509.013L-78.73 508.431L-82.0887 507.796L-85.4346 507.106L-88.7667 506.362L-92.084 505.564L-95.3855 504.713L-98.6701 503.807L-101.937 502.849L-105.185 501.837L-108.413 500.773L-111.621 499.657L-114.807 498.489L-117.971 497.27L-121.111 496L-124.226 494.68L-127.317 493.31L-130.381 491.892L-133.419 490.426L-136.429 488.912L-139.41 487.351L-142.363 485.745L-145.285 484.093L-148.177 482.398L-151.038 480.659L-153.867 478.878L-156.663 477.055L-159.427 475.193L-162.157 473.29L-164.853 471.349L-167.515 469.371L-170.142 467.357L-172.734 465.307L-175.291 463.223L-177.812 461.106L-180.297 458.957L-182.745 456.778L-185.158 454.568L-187.534 452.33L-189.873 450.064L-192.175 447.771L-194.441 445.453L-196.67 443.111L-198.862 440.745L-201.018 438.357L-203.136 435.947L-205.218 433.517L-207.264 431.067L-209.272 428.599L-211.245 426.114L-213.182 423.612L-215.082 421.094L-216.948 418.562L-218.777 416.015L-220.572 413.456L-222.331 410.884L-224.056 408.302L-225.747 405.708L-227.405 403.105L-229.028 400.493L-230.619 397.873L-232.177 395.246L-233.703 392.611L-235.197 389.971L-236.66 387.325L-238.093 384.675L-239.495 382.02L-240.867 379.362L-242.21 376.701L-243.525 374.038L-244.811 371.373L-246.07 368.706L-247.302 366.039L-248.508 363.371L-249.687 360.703L-250.842 358.035L-251.971 355.368L-253.077 352.702L-254.158 350.037L-255.217 347.374L-256.253 344.712L-257.267 342.052L-258.259 339.395L-259.231 336.739L-260.182 334.086L-261.112 331.435L-262.023 328.787L-262.914 326.141L-263.786 323.498L-264.639 320.857L-265.473 318.218L-266.289 315.581L-267.087 312.946L-267.866 310.314L-268.628 307.683L-269.372 305.054L-270.098 302.426L-270.806 299.799L-271.496 297.174L-272.169 294.55L-272.823 291.927L-273.46 289.305L-274.079 286.683L-274.68 284.061L-275.263 281.44L-275.827 278.818L-276.373 276.197L-276.9 273.575L-277.408 270.953L-277.897 268.331L-278.366 265.708L-278.815 263.084L-279.244 260.459L-279.653 257.833L-280.04 255.207L-280.406 252.579L-280.75 249.95L-281.071 247.32L-281.37 244.689L-281.646 242.057L-281.897 239.423L-282.124 236.789L-282.327 234.154L-282.504 231.518L-282.655 228.882L-282.779 226.245L-282.876 223.608L-282.946 220.971L-282.987 218.334L-283 215.697L-282.983 213.061L-282.936 210.426L-282.859 207.793L-282.75 205.161L-282.609 202.532L-282.435 199.905L-282.228 197.282L-281.987 194.662L-281.711 192.046L-281.399 189.435L-281.052 186.83L-280.668 184.23L-280.247 181.637L-279.788 179.051L-279.291 176.474L-278.755 173.905L-278.18 171.346L-277.565 168.797L-276.91 166.26L-276.215 163.734L-275.479 161.221L-274.703 158.722L-273.885 156.237L-273.026 153.768L-272.127 151.315L-271.186 148.878L-270.204 146.46L-269.181 144.061L-268.117 141.681L-267.013 139.322L-265.869 136.983L-264.685 134.667L-263.461 132.374L-262.199 130.103L-260.898 127.858L-259.56 125.637L-258.184 123.441L-256.772 121.272L-255.324 119.13L-253.841 117.015L-252.324 114.927L-250.774 112.868L-249.192 110.838L-247.578 108.837L-245.933 106.865L-244.259 104.923L-242.556 103.011L-240.826 101.13L-239.069 99.2787L-237.286 97.4585L-235.479 95.6692L-233.648 93.9108L-231.794 92.1836L-229.919 90.4874L-228.022 88.8225L-226.106 87.1886L-224.172 85.5857L-222.22 84.0137L-220.251 82.4723L-218.267 80.9613L-216.268 79.4804L-214.256 78.0291L-212.232 76.6071L-210.197 75.2138L-208.152 73.8486L-206.098 72.5111L-204.036 71.2006L-201.968 69.9163L-199.893 68.6575L-197.814 67.4235L-195.731 66.2134L-193.645 65.0264L-191.557 63.8616L-189.468 62.7181L-187.379 61.5949L-185.289 60.4912L-183.201 59.4058L-181.115 58.3379L-179.031 57.2864L-176.95 56.2503L-174.872 55.2286L-172.798 54.2203L-170.728 53.2245L-168.663 52.2401L-166.602 51.2661L-164.547 50.3016L-162.496 49.3458L-160.451 48.3976L-158.41 47.4562L-156.375 46.5209L-154.345 45.5908L-152.32 44.6651L-150.299 43.7433L-148.283 42.8245L-146.271 41.9083L-144.263 40.9942L-142.258 40.0815L-140.256 39.17L-138.257 38.2593L-136.259 37.349L-134.263 36.439L-132.268 35.5292L-130.273 34.6193L-128.277 33.7095L-126.281 32.7997L-124.283 31.8901L-122.282 30.9809L-120.279 30.0723L-118.272 29.1646L-116.261 28.2582L-114.245 27.3535L-112.223 26.4511L-110.195 25.5514L-108.16 24.6551L-106.118 23.7627L-104.068 22.8751L-102.009 21.9929L-99.9409 21.1169L-97.8635 20.248L-95.7759 19.3868L-93.6779 18.5344L-91.569 17.6915L-89.4489 16.8591L-87.3172 16.0381L-85.1736 15.2293L-83.018 14.4338L-80.85 13.6524L-78.6696 12.886L-76.4765 12.1355L-74.2707 11.4018L-72.0522 10.6858L-69.8209 9.98822L-67.5768 9.30995L-65.32 8.65174L-63.0506 8.01431L-60.7686 7.39837L-58.4742 6.80454L-56.1675 6.23345L-53.8488 5.68563L-51.5182 5.1616L-49.176 4.66178L-46.8224 4.18658L-44.4575 3.73632L-42.0817 3.31128L-39.6952 2.91165L-37.2983 2.5376L-34.8911 2.18924L-32.474 1.86665L-30.0471 1.56987L-27.6108 1.29894L-25.1652 1.05385L-22.7105 0.834571L-20.247 0.641058L-17.7748 0.473241L-15.2942 0.331031L-12.8052 0.214324L-10.3081 0.123002L-7.80298 0.0569347L-5.28998 0.0159827L-2.76926 0L-0.240875 0.00883633L2.29504 0.0423396L4.83844 0.100359L7.38925 0.182745L9.94745 0.289358L12.5129 0.420062L15.0857 0.574735L17.6657 0.753266L20.2529 0.955562L22.8474 1.18154L25.4491 1.43116L28.058 1.70436L30.674 2.00114L33.2973 2.32152L35.9277 2.66552L38.5653 3.03322L41.2101 3.42471L43.8619 3.84012L46.5209 4.27959L49.1868 4.74333L51.8597 5.23154L54.5394 5.74447L57.2258 6.2824L59.9189 6.84564L62.6184 7.43448L65.3242 8.04926L68.0362 8.69032L70.7541 9.35805L73.4778 10.0528L76.2068 10.775L78.9411 11.5251L81.6803 12.3035L84.4241 13.1106L87.172 13.947L89.9238 14.8132L92.679 15.7095L95.4372 16.6366L98.1978 17.595L100.96 18.5852L103.724 19.6078L106.489 20.6632L109.254 21.7522L112.018 22.8752L114.781 24.0327L117.542 25.2255L120.3 26.454L123.055 27.7187L125.805 29.0202L128.549 30.3591L131.287 31.7359L134.018 33.151L136.741 34.6049L139.454 36.0982L142.156 37.6312L144.847 39.2044L147.526 40.8182L150.19 42.4729L152.84 44.1688L155.473 45.9062L158.089 47.6854L160.686 49.5067L163.264 51.37L165.82 53.2757L168.354 55.2238L170.864 57.2144L173.349 59.2474L175.809 61.3227L178.241 63.4404L180.644 65.6003L183.017 67.8021L185.36 70.0456L187.671 72.3306L189.948 74.6568L192.191 77.0236L194.398 79.4308L196.569 81.8778L198.703 84.3642L200.798 86.8892L202.854 89.4525L204.869 92.0533L206.843 94.691L208.776 97.3648L210.665 100.074L212.511 102.818L214.313 105.596L216.07 108.407L217.782 111.25L219.447 114.125L221.066 117.031L222.638 119.966L224.162 122.929L225.638 125.921L227.066 128.94L228.444 131.985L229.774 135.054L231.055 138.148L232.287 141.265L233.469 144.404L234.601 147.565L235.683 150.745L236.716 153.945L237.7 157.163L238.634 160.399L239.518 163.651L240.353 166.919L241.14 170.202L241.877 173.498L242.566 176.807L243.206 180.128L243.799 183.46L244.344 186.803L244.843 190.155L245.294 193.516L245.699 196.885L246.058 200.261L246.372 203.644L246.641 207.032L246.865 210.426Z" fill="#FF6B6B" fill-opacity="0.3"/>
</svg>
