<svg width="80" height="80" viewBox="0 0 80 80" fill="none" xmlns="http://www.w3.org/2000/svg">
<circle cx="40" cy="40" r="40" fill="#FFD3D3"/>
<path d="M18 23.6026C18.0835 23.2781 18.1615 22.9505 18.2533 22.6336C18.6015 21.4148 19.2876 20.3462 20.2155 19.5776C21.1435 18.809 22.2668 18.3789 23.4281 18.3476C24.5527 18.3231 25.6801 18.3476 26.8798 18.3476C26.8798 17.9909 26.8798 17.6741 26.8798 17.3587C26.8938 16.3607 27.2876 15.9183 28.1826 15.9107C29.1374 15.903 30.0936 15.8954 31.0484 15.9107C31.349 15.9107 31.4659 15.7974 31.5452 15.4882C32.2815 12.7865 34.3873 11.0154 36.8537 11.0001C39.3589 10.9848 41.4954 12.7344 42.2317 15.4484C42.3374 15.8372 42.4933 15.9076 42.8107 15.9076C43.7321 15.8908 44.6521 15.8969 45.572 15.9076C46.5157 15.9076 46.8818 16.327 46.8915 17.3786C46.8915 17.6848 46.8915 17.9802 46.8915 18.3445C48.0718 18.3445 49.1964 18.3109 50.3182 18.3445C52.4059 18.4195 53.994 19.4681 55.0643 21.4381C55.5632 22.386 55.8173 23.4657 55.7992 24.5608C55.8061 26.8906 55.7992 29.2203 55.7992 31.5486C55.7992 31.6251 55.7992 31.7017 55.7992 31.7782C55.7365 32.5038 55.3037 32.9844 54.7052 33.0028C54.1067 33.0211 53.6029 32.5145 53.5764 31.7705C53.5458 30.8735 53.5667 29.975 53.5653 29.078C53.5653 27.532 53.582 25.9844 53.5583 24.4384C53.5291 22.5127 52.3461 21.0279 50.616 20.832C49.6348 20.7217 48.6382 20.7876 47.65 20.7753C47.426 20.7753 47.2033 20.7753 46.8957 20.7753C46.8957 21.1396 46.8957 21.455 46.8957 21.7703C46.8818 24.1506 45.5038 25.6721 43.3423 25.6736C39.0527 25.6736 34.7636 25.6736 30.4749 25.6736C28.2995 25.6629 26.8965 24.1246 26.884 21.7228C26.884 21.4381 26.884 21.1534 26.884 20.8366C26.7629 20.8038 26.6395 20.7818 26.5152 20.7707C25.5409 20.7707 24.5666 20.7478 23.5924 20.7707C21.6508 20.8212 20.2701 22.3489 20.2102 24.4812C20.2102 24.6909 20.2102 24.9022 20.2102 25.1119C20.2102 35.3667 20.2102 45.6226 20.2102 55.8795C20.2102 57.8434 21.1066 59.2792 22.6543 59.7385C23.0752 59.85 23.5074 59.9014 23.9403 59.8915C28.8386 59.9027 33.736 59.9027 38.6324 59.8915C38.8064 59.8915 38.9804 59.8915 39.153 59.9007C39.7793 59.9482 40.1968 60.415 40.2107 61.0717C40.222 61.3904 40.1178 61.7009 39.9211 61.9351C39.7243 62.1693 39.451 62.308 39.1613 62.3208C39.0221 62.333 38.8829 62.3208 38.7438 62.3208C33.7763 62.3208 28.8103 62.2795 23.8512 62.3346C20.5944 62.3713 18.3967 59.7874 18.0807 57.1898C18.0807 57.1393 18.0292 57.0964 18.0014 57.049L18 23.6026ZM44.6743 18.3323H41.867C40.5754 18.3323 40.3193 18.0782 40.1968 16.6791C40.034 14.7565 38.3206 13.2319 36.5781 13.4646C34.8355 13.6972 33.7248 15.0106 33.5481 17.0174C33.466 17.9496 33.0916 18.3277 32.2314 18.3338C31.7109 18.3338 31.1903 18.3338 30.6698 18.3338H29.1249C29.1249 19.4956 29.1249 20.5641 29.1249 21.631C29.1249 22.8357 29.4923 23.2306 30.603 23.2321H43.2032C43.3588 23.2373 43.5147 23.2301 43.6694 23.2107C44.2665 23.1143 44.6576 22.678 44.6688 22.0213C44.6896 20.8182 44.6743 19.6166 44.6743 18.3323Z" fill="white"/>
<path d="M55.7184 69.6667C54.7539 69.4478 53.7699 69.2948 52.8276 68.9993C47.3494 67.2895 43.2533 61.9779 42.5713 55.757C41.6318 47.1758 46.8859 39.49 54.6801 38.0695C62.3728 36.6658 69.9624 42.6968 71.1482 51.1602C72.3619 59.8104 67.375 67.6783 59.5961 69.3851C59.1075 69.4922 58.6121 69.5734 58.1207 69.6667H55.7184ZM69.1259 53.467C68.874 45.8241 63.2343 40.0518 56.3044 40.3426C49.6501 40.6212 44.4168 46.9645 44.6813 54.4253C44.9346 61.5967 50.6884 67.4854 57.1799 67.2191C64.0137 66.939 69.3709 60.7717 69.1315 53.467H69.1259Z" fill="white"/>
<path d="M36.9052 30.5643C40.5499 30.5643 44.196 30.5643 47.8435 30.5643C48.6967 30.5643 49.2353 31.1766 49.0961 31.968C49.0595 32.2347 48.9422 32.4801 48.7631 32.6645C48.5841 32.8489 48.3538 32.9616 48.1093 32.9844C47.9361 32.9987 47.7624 33.0023 47.5888 32.9951H26.0795C25.1999 32.9951 24.6766 32.5359 24.6724 31.7705C24.6682 31.0052 25.1735 30.5551 26.0712 30.5536C29.6816 30.5587 33.2929 30.5623 36.9052 30.5643Z" fill="white"/>
<path d="M33.6316 37.898C36.1666 37.898 38.7011 37.898 41.2351 37.898C41.732 37.898 42.1217 38.0909 42.3388 38.593C42.5351 39.0522 42.5198 39.5451 42.1816 39.8635C41.8977 40.1274 41.5447 40.285 41.1739 40.3135C39.455 40.3579 37.7361 40.3334 36.0172 40.3334C32.7185 40.3334 29.4204 40.3334 26.1227 40.3334C25.881 40.3429 25.6394 40.3125 25.4059 40.2431C25.1727 40.1577 24.9733 39.9866 24.8412 39.7586C24.7092 39.5306 24.6525 39.2595 24.6808 38.991C24.7071 38.7144 24.8198 38.4564 24.9998 38.261C25.1797 38.0656 25.4157 37.9449 25.6676 37.9194C25.8579 37.9036 26.0488 37.8985 26.2396 37.9041L33.6316 37.898Z" fill="white"/>
<path d="M31.3448 45.2333C33.1653 45.2333 34.9858 45.221 36.8063 45.2333C37.7291 45.2424 38.2761 46.1517 37.8822 46.9829C37.7923 47.1919 37.6487 47.3674 37.4691 47.4876C37.2895 47.6079 37.0819 47.6676 36.8717 47.6595C33.1778 47.6595 29.4849 47.6595 25.7928 47.6595C25.6446 47.6628 25.4973 47.6331 25.3598 47.5722C25.2223 47.5113 25.0975 47.4203 24.9928 47.3049C24.8881 47.1895 24.8057 47.052 24.7507 46.9006C24.6956 46.7492 24.669 46.5872 24.6724 46.4242C24.6835 45.7445 25.1484 45.244 25.8318 45.2394C27.669 45.2241 29.5076 45.2333 31.3448 45.2333Z" fill="white"/>
<path d="M54.6231 56.8821L58.8737 51.5414C59.7868 50.3933 60.6942 49.2453 61.6212 48.1034C61.7772 47.8959 61.9922 47.752 62.2315 47.6949C62.4708 47.6378 62.7206 47.6708 62.9408 47.7885C63.161 47.9063 63.3389 48.102 63.4459 48.3442C63.5529 48.5865 63.5828 48.8612 63.5308 49.1244C63.468 49.3801 63.3522 49.6164 63.1925 49.8147C60.6752 52.9935 58.1514 56.1667 55.621 59.3343C55.0406 60.0599 54.4032 60.0813 53.7824 59.4032C52.3655 57.8592 50.9547 56.3081 49.5499 54.7498C49.0252 54.1681 48.9932 53.4226 49.4511 52.9206C49.909 52.4185 50.5854 52.446 51.1143 53.0231C52.2737 54.2829 53.4205 55.5565 54.6231 56.8821Z" fill="white"/>
</svg>
